<svg width="22" height="24" viewBox="0 0 22 24" fill="none" xmlns="http://www.w3.org/2000/svg">
<path d="M11 23C5.47778 23 1 20.1598 1 15.3V15.2032C1 12.8734 2.48667 11.01 4.75 9.8C6.91556 8.6428 8.19556 6.511 7.87556 4.3L7.25 1L9.56778 1.8745C13.7422 3.4475 17.2189 6.1777 19.4722 9.6471C20.463 11.1542 20.9934 12.9123 21 14.7104V15.3C21 17.0182 20.44 18.4845 19.4722 19.6615" stroke="#6D6D8F" stroke-width="2" stroke-linejoin="round"/>
<path d="M11 23C9.343 23 8 21.3879 8 19.4C8 17.825 9.016 16.5639 9.91 15.4085L11 14L12.09 15.4085C12.984 16.565 14 17.825 14 19.4C14 21.3879 12.657 23 11 23Z" stroke="#6D6D8F" stroke-width="2" stroke-linejoin="round"/>
</svg>
