<svg width="40" height="44" viewBox="0 0 40 44" fill="none" xmlns="http://www.w3.org/2000/svg">
<path d="M28.725 42.261C29.2353 42.0417 29.435 41.4324 29.1787 40.9396L29.0802 40.7503C28.8778 40.361 29.0406 39.8894 29.4261 39.6797C31.7264 38.4569 33.7657 36.7882 35.4276 34.7692C37.0894 32.7501 38.3411 30.4203 39.1113 27.9125C39.8815 25.4047 40.1551 22.7683 39.9164 20.1538C39.6777 17.5392 38.9314 14.9978 37.7202 12.6746C37.5188 12.2828 37.6525 11.7987 38.0413 11.5917L38.2234 11.4947C38.7103 11.2355 38.8892 10.6244 38.5954 10.1576C36.8407 7.37066 34.4847 5.02022 31.7041 3.28249C31.2373 2.99074 30.6256 3.18587 30.3784 3.67774C30.1326 4.16691 29.5306 4.34077 29.0414 4.09514C26.2774 2.70752 23.231 1.98959 20.1447 1.99834C19.5869 1.99992 19.1187 1.55816 19.1128 1.00039C19.1071 0.452332 18.6442 0.0207021 18.0987 0.0738025C14.3026 0.443311 10.6632 1.81588 7.55022 4.0614C4.43436 6.309 1.96635 9.34433 0.388731 12.8553C0.167284 13.3481 0.437071 13.9148 0.951869 14.0788C1.47052 14.2441 1.73612 14.816 1.55577 15.3296C0.700224 17.7659 0.320336 20.35 0.440832 22.9386C0.577023 25.8643 1.3491 28.7239 2.70228 31.3144C2.70841 31.3259 2.71455 31.3373 2.7207 31.3488C2.98096 31.8342 2.80659 32.4435 2.32022 32.702C1.83165 32.9617 1.65525 33.5768 1.9557 34.0414C2.76571 35.294 3.70073 36.4595 4.7461 37.5195C5.13474 37.9135 5.76895 37.8942 6.14779 37.4907C6.53278 37.0807 7.17591 37.0553 7.60802 37.4153C10.8571 40.1223 14.8762 41.7149 19.0807 41.9613C19.6117 41.9924 20.0092 42.4788 19.9028 42.9999C19.7973 43.5171 20.1834 44.0063 20.7112 43.9957C23.4676 43.9402 26.1881 43.3513 28.725 42.261ZM3.75903 30.735C2.04629 27.4494 1.33658 23.7246 1.71965 20.0317C2.10271 16.3388 3.56136 12.8435 5.91113 9.98783C8.26088 7.13225 11.3962 5.04458 14.9207 3.98884C18.4451 2.93311 22.2003 2.95674 25.7115 4.05672C29.2226 5.15671 32.3319 7.28366 34.6464 10.1686C36.9607 13.0536 38.3761 16.5669 38.7136 20.2644C39.0511 23.9619 38.2955 27.6774 36.5425 30.9411C34.7893 34.2049 32.1174 36.8703 28.8646 38.6002C24.5015 40.9131 19.4084 41.3841 14.7021 39.9097C9.99574 38.4353 6.06043 35.1358 3.75903 30.735Z" fill="#5B6AF3"/>
<path d="M20.8258 20.3245L20.9039 20.3555C20.9756 20.3911 21.0523 20.4171 21.1318 20.4331C21.2563 20.459 21.3844 20.4668 21.5115 20.4563C21.6775 20.4467 21.8406 20.4127 21.9947 20.3555C22.6867 20.1268 23.4378 19.4852 23.8556 18.6749C23.9609 18.4708 24.032 18.2531 24.0666 18.0295C24.0926 17.812 24.0876 17.5924 24.0519 17.3762C24.0237 17.1793 23.9786 16.9849 23.9168 16.7947C23.8639 16.6238 23.8012 16.4555 23.729 16.2907C23.6229 16.0437 23.4885 15.8079 23.3281 15.587C23.2037 15.4358 23.1172 15.3544 23.1172 15.3544C23.0527 15.2779 22.9741 15.2123 22.8851 15.1606C22.6071 14.9852 22.2827 14.882 21.9462 14.8621C21.7884 14.8653 21.6333 14.9011 21.4926 14.9667C21.4002 14.9904 21.311 15.0236 21.2267 15.0656C20.8406 15.2381 20.1233 15.7033 19.6781 16.8489C19.1591 18.2543 19.8279 19.9097 20.8258 20.3245Z" fill="#F5F5FA"/>
<path d="M20.3066 15.0276C20.4569 14.9201 20.618 14.826 20.7877 14.7465C20.7877 14.7291 20.7877 14.7116 20.7877 14.6942C20.7877 14.7116 20.7877 14.7291 20.7877 14.7446C20.9546 14.6643 21.1363 14.613 21.3236 14.5934C21.8046 14.5604 21.7687 14.3647 21.3953 13.7347C21.3405 13.6482 21.2747 13.5682 21.1991 13.4962C20.9036 13.2341 20.5283 13.061 20.123 13C20.1194 13.2794 20.1541 13.5582 20.2264 13.8296C20.3024 14.2249 20.3292 14.6268 20.3066 15.0276Z" fill="#F5F5FA"/>
<path d="M16.022 20.7852C16.1827 20.8829 16.3639 20.9486 16.554 20.978C16.7441 21.0074 16.9388 20.9998 17.1255 20.9558L17.4166 20.8511C17.5301 20.8095 17.6407 20.7616 17.7479 20.7076C17.8854 20.6408 18.0192 20.5678 18.1487 20.4886C18.3075 20.3938 18.4498 20.2775 18.5707 20.1436C18.7066 19.9929 18.8195 19.826 18.9062 19.6473C18.9421 19.5504 18.9864 19.4535 19.0159 19.3508C19.0454 19.248 19.056 19.1337 19.0728 19.0212C19.0897 18.9088 19.0623 18.8177 19.0581 18.713V18.6355L19.0433 18.5463L19.0138 18.3815C18.9315 17.9725 18.8407 17.5635 18.7247 17.1855C18.6243 16.8404 18.4974 16.5023 18.345 16.1737C18.2876 16.0388 18.217 15.909 18.1339 15.786C18.0811 15.6873 18.0174 15.5938 17.9441 15.5068L17.7521 15.282C17.632 15.1322 17.4638 15.021 17.271 14.9641C16.3068 14.745 15.4397 14.7916 14.9502 15.9934C14.4607 17.1952 14.2117 19.0057 15.0409 19.9672C15.3052 20.2972 15.6388 20.5754 16.022 20.7852Z" fill="#F5F5FA"/>
<path d="M16.9856 14.3967C17.0025 14.3977 17.0194 14.3977 17.0363 14.3967C17.4287 14.3812 17.3 14.6429 17.7747 14.61C18.0849 14.5906 17.9308 13.947 17.7874 13.4954C17.7072 13.2511 17.6312 13.0612 17.6312 13.0612C17.6312 13.0612 17.7178 12.8053 17.1101 13.3403C16.769 13.6199 16.5149 13.9779 16.3738 14.3773C16.5767 14.3996 16.7814 14.4061 16.9856 14.3967Z" fill="#F5F5FA"/>
<path d="M13.1068 19.1825C13.1474 19.1658 13.1899 19.1528 13.2333 19.1437C13.3599 19.1437 13.6131 19.0875 13.6131 19.0875C13.4518 18.897 13.3471 18.6712 13.3093 18.4323C13.3093 18.3897 13.3093 18.3451 13.3093 18.3005C13.3084 17.9805 13.2808 17.661 13.227 17.3448L13.2038 17.3817C12.935 17.8097 12.7466 18.2763 12.6468 18.7619C12.5329 19.355 12.8915 19.2523 13.1068 19.1825Z" fill="#F5F5FA"/>
<path d="M25.192 17.6562C25.2002 17.6683 25.2101 17.6794 25.2215 17.6892C25.2869 17.8946 25.481 17.8481 25.6962 17.8036C25.8028 17.7741 25.9142 17.7623 26.0253 17.7686C26.3376 17.8016 26.576 17.6484 26.4979 17.2123C26.4111 16.9571 26.2583 16.7251 26.0528 16.5358C25.9101 16.3838 25.7579 16.2394 25.597 16.1035C25.5328 16.3482 25.4891 16.597 25.4662 16.8479C25.4557 16.8597 25.4458 16.8719 25.4366 16.8847C25.4261 16.9118 25.3797 16.9293 25.3607 16.9545C25.2789 17.0283 25.2143 17.1167 25.1708 17.2143C25.1463 17.2695 25.13 17.3275 25.1223 17.3867C25.1187 17.4413 25.123 17.4961 25.135 17.5496C25.1479 17.5876 25.1671 17.6236 25.192 17.6562Z" fill="#F5F5FA"/>
<path d="M26.0404 26.6533C26.0194 26.5642 25.9814 26.4847 25.954 26.4014C25.9265 26.318 25.8928 26.2385 25.8632 26.159C25.8287 26.0777 25.7841 26.0003 25.7303 25.9283C25.6538 25.7842 25.5511 25.6531 25.4265 25.5407L25.264 25.3875C25.1986 25.3352 25.1396 25.3022 25.0805 25.2616C24.8791 25.1281 24.6627 25.015 24.4349 24.9242L23.8441 24.6916C23.8174 24.6623 23.7954 24.6297 23.7787 24.5947C23.3613 23.8503 22.7968 23.1838 22.114 22.6292C22.0364 22.5729 21.9504 22.5272 21.8587 22.4934C21.7872 22.4252 21.7118 22.3605 21.633 22.2996C21.1286 21.9333 19.3416 21.7317 19.3416 21.7317C18.9594 21.7516 18.5871 21.851 18.2527 22.0222C17.9184 22.1934 17.6306 22.4321 17.4111 22.7203C17.3302 22.8214 17.2596 22.9291 17.2001 23.042C16.7507 23.8988 16.7 24.2051 16.6831 24.3989C16.6714 24.6006 16.5842 24.7923 16.4363 24.9417C16.4272 24.9555 16.4165 24.9685 16.4047 24.9805C16.3899 24.996 16.3794 25.0134 16.3646 25.027L16.2274 25.1976C15.6367 25.9574 14.9615 27.1845 15.2421 28.3378C15.4531 29.1636 15.9089 29.8886 16.5924 30.2123C16.9639 30.3814 17.3885 30.424 17.7908 30.3324L17.9554 30.2976C18.0609 30.2723 18.2213 30.2452 18.4154 30.1871C18.6095 30.1289 18.8373 30.0552 19.1222 29.9933C19.4255 29.9275 19.7392 29.9124 20.0484 29.9486C20.2193 29.9797 20.3944 29.999 20.5759 30.0398L21.1392 30.1832C21.5127 30.2898 21.9093 30.4313 22.3102 30.5825C22.7246 30.7695 23.1635 30.9063 23.6162 30.9896C24.1289 31.0613 24.6374 30.7493 24.9243 30.4255C25.2392 30.0944 25.4935 29.7187 25.6775 29.3128C25.7771 29.1193 25.8562 28.9174 25.9138 28.71L26.0088 28.4057C26.0256 28.3029 26.0447 28.2002 26.0616 28.0994C26.0785 27.9986 26.0953 27.9056 26.1143 27.797C26.1333 27.6885 26.1143 27.6031 26.1143 27.4965C26.1143 27.3899 26.1143 27.3027 26.1143 27.2039C26.1143 27.105 26.0847 27.01 26.07 26.915L26.0404 26.6533Z" fill="#F5F5FA"/>
<path d="M27.7152 19.9699C27.6631 19.835 27.5967 19.7052 27.517 19.5823C27.4545 19.4856 27.384 19.3935 27.3059 19.307C27.2584 19.2516 27.2054 19.2004 27.1477 19.1539L27.0907 19.1015C26.8362 18.8654 26.5082 18.7076 26.1518 18.6499C26.0723 18.6707 25.9875 18.6659 25.9113 18.6363C25.9885 18.6651 26.074 18.6692 26.154 18.6479C26.0956 18.6354 26.0364 18.6263 25.9767 18.6208C25.9389 18.6046 25.8981 18.5947 25.8565 18.5917C25.6455 18.5646 25.1433 18.6131 24.5294 19.3671C24.4339 19.4501 24.3437 19.5381 24.2593 19.6307C24.1855 19.7141 24.0947 19.809 24.0082 19.9176C23.9173 20.0334 23.8408 20.1582 23.7804 20.2897C23.7119 20.4155 23.652 20.5449 23.601 20.6774C23.5546 20.8054 23.5272 20.9294 23.4956 21.0322C23.4344 21.226 23.3985 21.3792 23.3985 21.3792C23.1875 21.6525 23.1537 22.2224 23.5778 22.8834C23.888 23.3661 24.6897 24.2403 25.3965 24.628C25.6021 24.7628 25.8543 24.8235 26.1054 24.7985C26.1054 24.7985 26.2194 24.7985 26.4156 24.7617C26.5354 24.7475 26.6533 24.7228 26.768 24.688C26.8438 24.6731 26.9156 24.644 26.9789 24.6028C27.06 24.5691 27.132 24.5194 27.1899 24.4574C27.3214 24.3287 27.4297 24.1814 27.5106 24.0213C27.597 23.8446 27.6676 23.6618 27.7216 23.4746C27.7701 23.2808 27.8334 23.0869 27.8672 22.8834C27.9009 22.6799 27.9347 22.4725 27.9579 22.2631C28.0594 21.4916 27.9766 20.709 27.7152 19.9699Z" fill="#F5F5FA"/>
<path d="M14.9148 25.3067C15.0056 25.2467 15.1026 25.1866 15.1934 25.1129C15.2784 25.0264 15.3567 24.9344 15.4275 24.8377C15.4845 24.7367 15.5359 24.6332 15.5815 24.5275C15.7419 24.1127 15.9866 23.6901 16.1997 23.2442C16.3137 23.0168 16.3905 22.7751 16.4276 22.5271C16.437 22.4594 16.437 22.3911 16.4276 22.3235C16.4137 22.2544 16.385 22.1885 16.3432 22.1297C16.2637 22.0349 16.1785 21.9443 16.0879 21.8583C15.7503 21.5268 15.4359 21.2147 15.1469 20.9724C14.5751 20.4781 14.1806 20.1641 14.1806 20.1641C14.0559 20.0442 13.9139 19.9405 13.7586 19.8559C13.4337 19.7434 12.7796 20.0032 12.7796 20.0032C12.7796 20.0032 12.1256 20.0226 12.0328 21.4842C11.9399 22.9457 11.9905 24.2309 12.9147 24.9733C13.0434 25.0763 13.1851 25.1648 13.3366 25.2369C13.3366 25.2369 13.4505 25.2932 13.6637 25.3804C13.8012 25.4196 13.9425 25.4469 14.0857 25.4618C14.1658 25.4618 14.2545 25.4735 14.3473 25.4618L14.6384 25.4153L14.9148 25.3067Z" fill="#F5F5FA"/>
</svg>
