<svg width="22" height="22" viewBox="0 0 22 22" fill="none" xmlns="http://www.w3.org/2000/svg">
<path d="M1 6V3.5C1 2.83696 1.26339 2.20107 1.73223 1.73223C2.20107 1.26339 2.83696 1 3.5 1H6M16 1H18.5C19.163 1 19.7989 1.26339 20.2678 1.73223C20.7366 2.20107 21 2.83696 21 3.5V6M21 16V18.5C21 19.163 20.7366 19.7989 20.2678 20.2678C19.7989 20.7366 19.163 21 18.5 21H16M6 21H3.5C2.83696 21 2.20107 20.7366 1.73223 20.2678C1.26339 19.7989 1 19.163 1 18.5V16" stroke="#6D6D8F" stroke-width="2" stroke-linecap="round" stroke-linejoin="round"/>
</svg>
