<svg width="24" height="24" viewBox="0 0 24 24" fill="none" xmlns="http://www.w3.org/2000/svg">
<path d="M1 3.43113V7.09614M1 7.09614H4.66756M1 7.09614L4.66756 3.7963C6.50747 2.1532 8.84634 1.17598 11.3086 1.02158C13.7708 0.867185 16.2135 1.54457 18.2443 2.94495C20.2752 4.34533 21.7763 6.38744 22.5067 8.74332C23.2371 11.0992 23.1544 13.6321 22.2718 15.9354C21.3892 18.2386 19.7579 20.1784 17.64 21.4433C15.522 22.7082 13.0404 23.2248 10.5935 22.9101C8.14657 22.5954 5.87647 21.4677 4.14772 19.708C2.41898 17.9484 1.33192 15.659 1.06113 13.2074M12.0027 7.09704V11.9851L15.6702 13.2065" stroke="#6D6D8F" stroke-width="2" stroke-linecap="round" stroke-linejoin="round"/>
</svg>
