<svg width="24" height="24" viewBox="0 0 24 24" fill="none" xmlns="http://www.w3.org/2000/svg">
<g clip-path="url(#clip0_1829_1121)">
<path d="M16.375 1.99902H7.625C7.12778 1.99921 6.65097 2.19682 6.29938 2.54841C5.94779 2.9 5.75019 3.3768 5.75 3.87402V20.124C5.75019 20.6212 5.94779 21.098 6.29938 21.4496C6.65097 21.8012 7.12778 21.9988 7.625 21.999H16.375C16.8722 21.9988 17.349 21.8012 17.7006 21.4496C18.0522 21.098 18.2498 20.6212 18.25 20.124V3.87402C18.2498 3.3768 18.0522 2.9 17.7006 2.54841C17.349 2.19682 16.8722 1.99921 16.375 1.99902Z" fill="#1F43F7"/>
<path d="M10.3964 12.6559L10.4021 12.6487L8.78564 14.2616V7.83301L11.9999 11.0473L15.2142 7.83301V14.2616L13.6071 12.6559L11.9999 14.2616L10.3964 12.6559Z" fill="white"/>
<path d="M12.0001 20.2112C12.5919 20.2112 13.0716 19.7315 13.0716 19.1398C13.0716 18.5481 12.5919 18.0684 12.0001 18.0684C11.4084 18.0684 10.9287 18.5481 10.9287 19.1398C10.9287 19.7315 11.4084 20.2112 12.0001 20.2112Z" fill="white"/>
</g>
<defs>
<clipPath id="clip0_1829_1121">
<rect width="17.5" height="20" fill="white" transform="translate(3.25 2)"/>
</clipPath>
</defs>
</svg>
