<svg width="32" height="32" viewBox="0 0 32 32" fill="none" xmlns="http://www.w3.org/2000/svg">
<rect width="32" height="32" rx="16" fill="url(#paint0_radial_16_36)"/>
<path d="M10.5794 15.9206C10.5282 16.8031 11.213 17.5586 12.1026 17.6094C12.1346 17.6094 12.1666 17.6094 12.1986 17.6094C13.0945 17.6094 13.8177 16.892 13.8113 16.0032C13.8113 15.1143 13.0881 14.397 12.1922 14.4033C11.3346 14.4033 10.6242 15.0699 10.5794 15.9206Z" fill="white"/>
<path d="M4.55091 15.508C4.26293 15.4889 4.01334 15.7111 4.00054 15.9968C3.98774 16.2825 4.20533 16.5301 4.49331 16.5428C4.7813 16.5619 5.02449 16.3396 5.04369 16.054C5.06289 15.7683 4.8389 15.527 4.55091 15.508Z" fill="white"/>
<path d="M10.4771 6.61351C10.733 6.48653 10.8354 6.1691 10.7074 5.91515C10.5794 5.66121 10.2595 5.55963 10.0035 5.6866C9.74748 5.81357 9.64509 6.12466 9.77308 6.3786C9.90108 6.6389 10.2147 6.74683 10.4771 6.61351Z" fill="white"/>
<path d="M12.1154 9.45136C12.5122 9.25455 12.6721 8.77205 12.4738 8.37843C12.2754 7.98482 11.789 7.8261 11.3922 8.02291C10.9954 8.21972 10.8354 8.70222 11.0338 9.09583C11.2322 9.48945 11.7186 9.64817 12.1154 9.45136Z" fill="white"/>
<path d="M6.59882 11.4004C6.90601 11.5972 7.31559 11.5147 7.52038 11.2099C7.71877 10.9052 7.63557 10.4989 7.32839 10.2957C7.0212 10.0989 6.61162 10.1814 6.40683 10.4862C6.20204 10.7909 6.29163 11.2036 6.59882 11.4004Z" fill="white"/>
<path d="M7.57798 15.2223C7.13 15.1969 6.75241 15.5334 6.72682 15.9778C6.70122 16.4222 7.0404 16.7968 7.48838 16.8222C7.93636 16.8475 8.31395 16.5111 8.33954 16.0667C8.36514 15.6286 8.02596 15.2477 7.57798 15.2223Z" fill="white"/>
<path d="M6.68842 20.5996C6.36204 20.7647 6.22764 21.1583 6.39404 21.4884C6.56043 21.8122 6.95721 21.9455 7.29 21.7805C7.61638 21.6154 7.75078 21.2218 7.58438 20.8916C7.41799 20.5679 7.01481 20.4345 6.68842 20.5996Z" fill="white"/>
<path d="M9.82428 13.5653C10.2659 13.851 10.8546 13.7303 11.1362 13.2923C11.4242 12.8542 11.3026 12.2702 10.861 11.9908C10.4195 11.7051 9.83068 11.8257 9.54909 12.2638C9.26111 12.6955 9.3827 13.2796 9.82428 13.5653Z" fill="white"/>
<path d="M19.7758 9.38786C20.147 9.62911 20.6526 9.52753 20.8958 9.15931C21.139 8.79109 21.0366 8.28954 20.6654 8.0483C20.2942 7.80705 19.7886 7.90862 19.5454 8.27685C19.2958 8.65142 19.3982 9.14661 19.7758 9.38786Z" fill="white"/>
<path d="M21.427 6.5627C21.6702 6.72142 21.9901 6.65158 22.1501 6.41034C22.3101 6.16909 22.2397 5.85165 21.9965 5.69294C21.7534 5.53422 21.4334 5.60406 21.2734 5.83896C21.1198 6.0802 21.1902 6.40399 21.427 6.5627Z" fill="white"/>
<path d="M19.8974 14.3906C19.0079 14.3398 18.2399 15.0191 18.1951 15.9016C18.1439 16.7841 18.8287 17.5459 19.7182 17.5903C19.7502 17.5903 19.7822 17.5903 19.8078 17.5903C20.6974 17.5903 21.4206 16.8729 21.4206 15.9841C21.427 15.1398 20.755 14.4351 19.8974 14.3906Z" fill="white"/>
<path d="M12.6466 13.451C12.9217 13.9906 13.4785 14.3335 14.0929 14.3335C14.9825 14.3335 15.7056 13.6161 15.7056 12.7273C15.7056 12.4797 15.648 12.2321 15.5328 12.0035C15.1296 11.2099 14.1569 10.8925 13.3633 11.2925C12.5634 11.6988 12.2434 12.6638 12.6466 13.451Z" fill="white"/>
<path d="M25.3116 11.4004C25.638 11.2353 25.766 10.8354 25.5996 10.5116C25.4332 10.1878 25.03 10.0608 24.7036 10.2259C24.3772 10.391 24.2492 10.7846 24.4092 11.1084C24.582 11.4321 24.9788 11.5655 25.3116 11.4004Z" fill="white"/>
<path d="M21.2158 11.9083C20.7486 12.1432 20.5566 12.7082 20.7934 13.1717C21.0302 13.6351 21.5998 13.8256 22.0669 13.5907C22.5341 13.3558 22.7261 12.7907 22.4893 12.3273C22.2525 11.8638 21.683 11.6797 21.2158 11.9083Z" fill="white"/>
<path d="M15.936 6.32146C16.3008 6.34051 16.6144 6.06117 16.64 5.69929C16.6656 5.33742 16.3776 5.02633 16.0128 5.00094C15.648 4.98189 15.3344 5.25489 15.3088 5.61676C15.2896 5.98498 15.5712 6.29607 15.936 6.32146Z" fill="white"/>
<path d="M15.9296 10.4671C16.4544 10.4989 16.9024 10.0989 16.928 9.57833C16.96 9.05774 16.5568 8.61333 16.032 8.58794C15.5072 8.5562 15.0592 8.95616 15.0336 9.47675C15.008 9.99734 15.4048 10.4417 15.9296 10.4671Z" fill="white"/>
<path d="M10.7842 20.0917C11.2514 19.8568 11.4434 19.2918 11.2066 18.8283C10.9698 18.3649 10.4003 18.1744 9.93307 18.4093C9.46589 18.6442 9.2739 19.2092 9.51069 19.6727C9.74748 20.1362 10.3171 20.3266 10.7842 20.0917Z" fill="white"/>
<path d="M16.544 11.8448C16.0576 12.5876 16.2624 13.578 17.0112 14.0605C17.7599 14.543 18.7583 14.3398 19.2447 13.597C19.731 12.8542 19.5263 11.8638 18.7775 11.3813C18.5151 11.2099 18.2079 11.121 17.8943 11.121C17.3503 11.121 16.8448 11.394 16.544 11.8448Z" fill="white"/>
<path d="M19.3535 18.549C18.9503 17.7554 17.9775 17.438 17.184 17.8379C16.384 18.2379 16.064 19.2029 16.4672 19.9901C16.8704 20.7837 17.8431 21.1011 18.6367 20.7012C19.4303 20.3076 19.7566 19.3553 19.3599 18.5617C19.3599 18.5553 19.3599 18.5553 19.3535 18.549Z" fill="white"/>
<path d="M22.1757 18.4347C21.7342 18.149 21.1454 18.2696 20.8638 18.7077C20.5758 19.1458 20.6974 19.7298 21.139 20.0092C21.5806 20.2949 22.1693 20.1742 22.4509 19.7362C22.7389 19.3045 22.6173 18.7204 22.1757 18.4347Z" fill="white"/>
<path d="M25.2732 16.0286C25.2988 15.5842 24.9596 15.2096 24.5116 15.1842C24.0637 15.1588 23.6861 15.4953 23.6605 15.9397C23.6349 16.3841 23.9741 16.7587 24.422 16.7841C24.8636 16.8095 25.2476 16.4666 25.2732 16.0286Z" fill="white"/>
<path d="M27.5067 15.4572C27.2187 15.4381 26.9691 15.6603 26.9563 15.946C26.9435 16.2317 27.1611 16.4793 27.4491 16.492C27.7371 16.5111 27.9803 16.2889 27.9995 16.0032C28.0123 15.7175 27.7947 15.4762 27.5067 15.4572Z" fill="white"/>
<path d="M25.4012 20.5996C25.094 20.4028 24.6844 20.4853 24.4796 20.7901C24.2812 21.0948 24.3644 21.5011 24.6716 21.7043C24.9788 21.9011 25.3884 21.8186 25.5932 21.5138C25.798 21.2091 25.7084 20.7964 25.4012 20.5996Z" fill="white"/>
<path d="M10.5667 25.4373C10.3235 25.2786 10.0035 25.3484 9.84348 25.5833C9.68349 25.8246 9.75389 26.142 9.99068 26.3007C10.2339 26.4594 10.5539 26.3896 10.7138 26.1547C10.8802 25.9198 10.8098 25.596 10.5667 25.4373Z" fill="white"/>
<path d="M21.523 25.3865C21.267 25.5135 21.1646 25.8309 21.2926 26.0848C21.4206 26.3388 21.7405 26.4404 21.9965 26.3134C22.2525 26.1864 22.3549 25.8753 22.2269 25.6214C22.0989 25.3611 21.7853 25.2532 21.523 25.3865Z" fill="white"/>
<path d="M15.456 20.1552C15.9424 19.4124 15.7376 18.422 14.9888 17.9332C14.2401 17.4507 13.2417 17.6538 12.7489 18.3966C12.2562 19.1394 12.4674 20.1298 13.2161 20.6186C13.4785 20.7901 13.7857 20.8789 14.0993 20.8789C14.6497 20.8853 15.1552 20.6123 15.456 20.1552Z" fill="white"/>
<path d="M12.2242 22.6121C11.853 22.3709 11.3474 22.4725 11.1042 22.8407C10.861 23.2089 10.9634 23.7105 11.3346 23.9517C11.7058 24.193 12.2114 24.0914 12.4546 23.7232C12.7042 23.3549 12.6018 22.8534 12.2242 22.6121Z" fill="white"/>
<path d="M15.9936 25.6785C15.6288 25.6595 15.3152 25.9388 15.2896 26.3007C15.264 26.6626 15.552 26.9737 15.9168 26.9991C16.2816 27.0181 16.5952 26.7451 16.6208 26.3832C16.64 26.015 16.3584 25.7039 15.9936 25.6785Z" fill="white"/>
<path d="M16 21.5329C15.4752 21.5011 15.0272 21.9011 15.0016 22.4217C14.9697 22.9423 15.3728 23.3867 15.8976 23.4121C16.4224 23.4375 16.8704 23.0438 16.896 22.5232C16.928 22.009 16.5248 21.5583 16 21.5329Z" fill="white"/>
<path d="M19.8846 22.5486C19.4879 22.7518 19.3279 23.2343 19.5326 23.6279C19.7374 24.0215 20.2238 24.1802 20.6206 23.9771C21.0174 23.7803 21.1774 23.2978 20.979 22.9042C20.7742 22.5105 20.2878 22.3455 19.8846 22.5486Z" fill="white"/>
<defs>
<radialGradient id="paint0_radial_16_36" cx="0" cy="0" r="1" gradientUnits="userSpaceOnUse" gradientTransform="translate(16 32) rotate(-116.565) scale(35.7771 17.8885)">
<stop stop-color="#3C6DE3"/>
<stop offset="1" stop-color="#0030AE"/>
</radialGradient>
</defs>
</svg>
