<svg width="20" height="24" viewBox="0 0 20 24" fill="none" xmlns="http://www.w3.org/2000/svg">
<path d="M1 17.9714H3.57143M3.57143 17.9714H16.4286M3.57143 17.9714V10.4286C3.57143 8.7615 4.24872 7.1627 5.45431 5.9839C6.6599 4.8051 8.29504 4.14286 10 4.14286C11.705 4.14286 13.3401 4.8051 14.5457 5.9839C15.7513 7.1627 16.4286 8.7615 16.4286 10.4286V17.9714M16.4286 17.9714H19M9.35714 3.51429V1.62857C9.35714 1.46186 9.42487 1.30198 9.54543 1.1841C9.66599 1.06622 9.8295 1 10 1C10.1705 1 10.334 1.06622 10.4546 1.1841C10.5751 1.30198 10.6429 1.46186 10.6429 1.62857V3.51429M11.2857 21.7429C11.2857 22.0763 11.1503 22.396 10.9091 22.6318C10.668 22.8676 10.341 23 10 23C9.65901 23 9.33198 22.8676 9.09086 22.6318C8.84974 22.396 8.71429 22.0763 8.71429 21.7429H11.2857Z" stroke="#6D6D8F" stroke-width="2" stroke-linecap="round" stroke-linejoin="round"/>
</svg>
