<svg width="32" height="32" viewBox="0 0 32 32" fill="none" xmlns="http://www.w3.org/2000/svg">
<rect width="32" height="32" rx="16" fill="url(#paint0_radial_16_9)"/>
<path fill-rule="evenodd" clip-rule="evenodd" d="M22.2186 20.7824C22.756 18.9031 21.387 17.3674 20.5893 16.8261C21.7006 16.45 22.5376 15.9172 22.8962 14.5859C23.4658 12.4714 21.5633 10.9031 20.2781 10.425C20.1732 10.3847 19.8741 10.2995 19.8741 10.2995L20.1306 9.34729C20.2896 8.75691 19.9374 8.15007 19.3439 7.99188C18.7492 7.8334 18.1383 8.18533 17.9805 8.7772L17.7269 9.7286L16.2877 9.34502L16.5373 8.41826C16.6992 7.81735 16.3407 7.19968 15.7366 7.03866C15.1325 6.87765 14.5115 7.23426 14.3496 7.83518L14.1027 8.75171C13.7155 8.65809 11.4003 8.03965 11.4003 8.03965L10.9181 9.82961L11.6706 10.0302C12.4572 10.2617 12.6293 10.7814 12.4893 11.1754L10.4102 18.8936C10.3712 19.0189 10.2863 19.1256 10.1716 19.1935C10.0568 19.2615 9.91997 19.2861 9.78669 19.2628C9.45474 19.1894 8.96827 19.0447 8.96827 19.0447L8 20.9611L10.6305 21.6623L10.3732 22.6177C10.2112 23.219 10.5699 23.8371 11.1744 23.9982C11.7789 24.1593 12.4002 23.8025 12.5622 23.2012L12.8165 22.2572L14.2543 22.6404L13.9925 23.6125C13.8341 24.2004 14.1848 24.8047 14.7759 24.9622C15.3669 25.1197 15.9744 24.7708 16.1328 24.1829L16.3925 23.2185C18.878 23.9494 21.5623 23.1298 22.2186 20.7824ZM18.5663 20.1883L18.5609 20.1923C18.8964 19.7285 19.0169 19.1184 18.7924 18.5779C18.5969 18.0506 18.1036 17.5275 17.1641 17.2292C16.6989 17.0804 15.8294 16.8519 15.1702 16.6787C14.8085 16.5836 14.5101 16.5052 14.3766 16.4657L13.3682 20.2092L15.9922 20.9031C16.7141 21.0599 17.2636 21.0023 17.6832 20.8553C18.0436 20.7299 18.3526 20.4964 18.5663 20.1883ZM18.4441 15.2356C18.0561 15.3704 17.5486 15.4242 16.8774 15.2781L16.8529 15.2717C16.624 15.2114 14.8705 14.7497 14.8409 14.7367L15.7733 11.2756C15.8893 11.31 16.1164 11.3687 16.3899 11.4395C16.8905 11.5691 17.5468 11.739 17.9628 11.8729C18.8322 12.1484 19.2879 12.6328 19.472 13.1187C19.6804 13.6193 19.5663 14.1845 19.2606 14.6166C19.0646 14.8984 18.7764 15.1242 18.4441 15.2356Z" fill="white"/>
<defs>
<radialGradient id="paint0_radial_16_9" cx="0" cy="0" r="1" gradientUnits="userSpaceOnUse" gradientTransform="translate(16 32) rotate(-116.565) scale(35.7771 17.8885)">
<stop stop-color="#EEAB6E"/>
<stop offset="1" stop-color="#FF8C68"/>
</radialGradient>
</defs>
</svg>
