<svg width="24" height="22" viewBox="0 0 24 22" fill="none" xmlns="http://www.w3.org/2000/svg">
<path d="M8.74671 15.9876C10.3533 15.8946 11.8854 15.2635 13.1067 14.1917C14.328 13.1199 15.1707 11.667 15.5048 10.0569C15.8388 8.44678 15.6458 6.76897 14.9554 5.28218C14.265 3.7954 13.1156 2.58221 11.6845 1.8297C10.2533 1.07719 8.61983 0.827151 7.03598 1.11814C5.45213 1.40914 4.00586 2.225 2.92018 3.43992C1.83451 4.65484 1.16973 6.20134 1.02836 7.84094C0.886987 9.48054 1.27688 11.1222 2.13791 12.5127L1.61976 14.1027V14.1052C1.42057 14.7139 1.32158 15.0176 1.39124 15.2214C1.45234 15.3976 1.59043 15.5376 1.76274 15.6001C1.96071 15.6726 2.25645 15.5714 2.84791 15.3701L2.85647 15.3676L4.41091 14.8376C5.70256 15.6764 7.21932 16.0787 8.74671 15.9876ZM8.74671 15.9876C9.11286 17.0517 9.70886 18.0176 10.4904 18.8136C11.2719 19.6096 12.2188 20.215 13.2607 20.585C14.3025 20.955 15.4125 21.0799 16.5081 20.9505C17.6037 20.821 18.6567 20.4406 19.5887 19.8375L21.1431 20.3675H21.1468C21.7419 20.5712 22.0389 20.6725 22.2381 20.6C22.3231 20.5687 22.4004 20.5185 22.4642 20.453C22.528 20.3875 22.5768 20.3084 22.6071 20.2213C22.678 20.0188 22.579 19.7138 22.3798 19.1025L21.8617 17.5126L22.0352 17.2188C22.672 16.0781 23.0047 14.7863 23 13.4727C22.9952 12.1591 22.6533 10.8698 22.0084 9.73388C21.3634 8.59794 20.4381 7.65519 19.3251 6.99997C18.212 6.34475 16.9502 6.00006 15.6659 6.00038L15.391 6.00538L15.2529 6.01288" stroke="white" stroke-width="2" stroke-linecap="round" stroke-linejoin="round"/>
</svg>
