<svg
  className="w-4 h-4"
  width="23"
  height="23"
  viewBox="0 0 23 23"
  fill="none"
  xmlns="http://www.w3.org/2000/svg"
>
  <path
    d="M1.46651 6.54688L21.1911 1.02356C21.3 0.993083 21.4151 0.992158 21.5246 1.02088C21.634 1.0496 21.7338 1.10694 21.8137 1.187C21.8937 1.26706 21.9508 1.36695 21.9794 1.47642C22.0079 1.58589 22.0068 1.70098 21.9762 1.80987L16.454 21.5327C16.4189 21.6596 16.3453 21.7725 16.2435 21.8559C16.1416 21.9392 16.0164 21.989 15.8851 21.9984C15.7538 22.0077 15.6229 21.9762 15.5102 21.9081C15.3976 21.84 15.3088 21.7387 15.256 21.6181L11.1166 12.2104C11.0527 12.0642 10.9363 11.9473 10.7903 11.8829L1.38239 7.74355C1.26176 7.69092 1.16039 7.60223 1.0922 7.48966C1.02401 7.37709 0.992347 7.24617 1.00157 7.11489C1.01078 6.9836 1.06043 6.85839 1.14368 6.75645C1.22693 6.65452 1.3397 6.58214 1.46651 6.54688Z"
    stroke="white"
    stroke-width="2"
    stroke-linecap="round"
    stroke-linejoin="round"
  />
</svg>
