<svg width="32" height="32" viewBox="0 0 32 32" fill="none" xmlns="http://www.w3.org/2000/svg">
<rect width="32" height="32" rx="16" fill="url(#paint0_radial_16_42)"/>
<path d="M21.354 18.1285L17.5796 16.2569L21.2653 14.83C21.6733 14.6722 21.9594 14.2707 21.9949 13.8046C22.0304 13.3385 21.8108 12.8915 21.4316 12.6621L15.7722 9.25127V7.33433C16.473 7.16702 16.9986 6.49298 16.9986 5.68748C16.9986 4.7553 16.2978 4 15.4329 4C15.2222 4 15.0226 4.04541 14.8386 4.12668C15.2001 4.43502 15.4329 4.91306 15.4329 5.44846C15.4329 6.07469 15.1158 6.61966 14.6456 6.91126C14.9472 6.60293 15.1357 6.1703 15.1357 5.68748C15.1357 4.7553 14.435 4 13.5701 4C13.2862 4 13.0201 4.08366 12.7895 4.22468C12.3193 4.51628 12.0022 5.06125 12.0022 5.68748C12.0022 6.61488 12.6963 7.36779 13.5546 7.37496V9.95399C13.5546 10.3866 13.7719 10.7858 14.1223 10.9985L18.2249 13.47L14.2797 14.9973C13.8562 15.1622 13.5657 15.5853 13.5457 16.0705C13.5257 16.5557 13.7808 17.0051 14.191 17.2082L18.0386 19.118L14.2642 20.6788C13.8362 20.8557 13.5523 21.3003 13.5523 21.795V24.625C12.6941 24.6322 12 25.3851 12 26.3125C12 26.9388 12.3171 27.4837 12.7873 27.7753C13.0179 27.9187 13.284 28 13.5679 28C14.4327 28 15.1335 27.2447 15.1335 26.3125C15.1335 25.8297 14.945 25.3971 14.6434 25.0887C15.1136 25.3803 15.4307 25.9253 15.4307 26.5515C15.4307 27.0869 15.1978 27.565 14.8364 27.8733C15.0204 27.9546 15.22 28 15.4307 28C16.2956 28 16.9963 27.2447 16.9963 26.3125C16.9963 25.507 16.4708 24.833 15.77 24.6657V22.6149L21.2875 20.3322C21.7044 20.1601 21.9838 19.7347 21.9993 19.2543C22.0149 18.7714 21.7598 18.3293 21.354 18.1285Z" fill="white"/>
<defs>
<radialGradient id="paint0_radial_16_42" cx="0" cy="0" r="1" gradientUnits="userSpaceOnUse" gradientTransform="translate(16 32) rotate(-116.565) scale(35.7771 17.8885)">
<stop stop-color="#FF97B0"/>
<stop offset="1" stop-color="#EC297B"/>
</radialGradient>
</defs>
</svg>
