<svg width="32" height="32" viewBox="0 0 32 32" fill="none" xmlns="http://www.w3.org/2000/svg">
<rect width="32" height="32" rx="16" fill="url(#paint0_radial_16_3)"/>
<path d="M10.4584 18.3502C10.3604 18.3005 10.2656 18.4223 10.3378 18.5051L15.6231 24.5677C15.8224 24.7963 16.1776 24.7963 16.3769 24.5677L21.6622 18.5051C21.7344 18.4223 21.6396 18.3005 21.5416 18.3502L16.2262 21.047C16.084 21.1191 15.916 21.1191 15.7738 21.047L10.4584 18.3502ZM16.416 7.62404C16.2181 7.32717 15.7819 7.32717 15.584 7.62404L10.3123 15.5315C10.1462 15.7808 10.235 16.1192 10.5021 16.2548L15.7738 18.9293C15.916 19.0015 16.084 19.0015 16.2262 18.9293L21.4979 16.2548C21.765 16.1192 21.8538 15.7808 21.6877 15.5315L16.416 7.62404Z" fill="white"/>
<defs>
<radialGradient id="paint0_radial_16_3" cx="0" cy="0" r="1" gradientUnits="userSpaceOnUse" gradientTransform="translate(16 32) rotate(-116.565) scale(35.7771 17.8885)">
<stop stop-color="#8A64F3"/>
<stop offset="1" stop-color="#5D59EE"/>
</radialGradient>
</defs>
</svg>
