<svg width="24" height="24" viewBox="0 0 24 24" fill="none" xmlns="http://www.w3.org/2000/svg">
<path d="M23 18.9614V11.4928C23 10.774 23 10.4145 22.9106 10.0793C22.8315 9.78303 22.7013 9.50212 22.5256 9.24874C22.3263 8.962 22.0512 8.72373 21.4971 8.25122L14.8971 2.59725C13.8714 1.71819 13.3571 1.27799 12.7796 1.11106C12.2709 0.96298 11.7291 0.96298 11.219 1.11106C10.6415 1.27799 10.13 1.71684 9.10425 2.59455L2.50287 8.25122C1.95012 8.72507 1.67375 8.962 1.47575 9.24739C1.29947 9.50112 1.1688 9.78249 1.08938 10.0793C1 10.4132 1 10.774 1 11.4928V18.9614C1 20.2161 1 20.8434 1.209 21.3375C1.34705 21.6642 1.54949 21.9611 1.80476 22.2113C2.06003 22.4615 2.36313 22.6599 2.69675 22.7954C3.20275 23 3.8435 23 5.125 23C6.4065 23 7.04725 23 7.55325 22.7954C7.88687 22.6599 8.18997 22.4615 8.44524 22.2113C8.70051 21.9611 8.90295 21.6642 9.041 21.3375C9.25 20.8434 9.25 20.2161 9.25 18.9614V17.6153C9.25 16.9012 9.53973 16.2164 10.0555 15.7115C10.5712 15.2066 11.2707 14.9229 12 14.9229C12.7293 14.9229 13.4288 15.2066 13.9445 15.7115C14.4603 16.2164 14.75 16.9012 14.75 17.6153V18.9614C14.75 20.2161 14.75 20.8434 14.959 21.3375C15.097 21.6642 15.2995 21.9611 15.5548 22.2113C15.81 22.4615 16.1131 22.6599 16.4468 22.7954C16.9528 23 17.5935 23 18.875 23C20.1565 23 20.7973 23 21.3033 22.7954C21.6369 22.6599 21.94 22.4615 22.1952 22.2113C22.4505 21.9611 22.653 21.6642 22.791 21.3375C23 20.8434 23 20.2161 23 18.9614Z" stroke="#6D6D8F" stroke-width="2" stroke-linecap="round" stroke-linejoin="round"/>
</svg>
