<svg width="22" height="23" viewBox="0 0 22 23" fill="none" xmlns="http://www.w3.org/2000/svg">
<path d="M21 9V5.36364C21 4.20633 20.5786 3.09642 19.8284 2.27808C19.0783 1.45974 18.0609 1 17 1C15.9391 1 14.9217 1.45974 14.1716 2.27808C13.4214 3.09642 13 4.20633 13 5.36364V9" stroke="#6D6D8F" stroke-width="2" stroke-linecap="round" stroke-linejoin="round"/>
<path d="M3.4 22H14.6C15.2365 22 15.847 21.7471 16.2971 21.2971C16.7471 20.847 17 20.2365 17 19.6V12.4C17 11.7635 16.7471 11.153 16.2971 10.7029C15.847 10.2529 15.2365 10 14.6 10H3.4C2.76348 10 2.15303 10.2529 1.70294 10.7029C1.25286 11.153 1 11.7635 1 12.4V19.6C1 20.2365 1.25286 20.847 1.70294 21.2971C2.15303 21.7471 2.76348 22 3.4 22Z" stroke="#6D6D8F" stroke-width="2" stroke-linecap="round" stroke-linejoin="round"/>
</svg>
