<svg width="52" height="56" viewBox="0 0 52 56" fill="none" xmlns="http://www.w3.org/2000/svg">
<path d="M37.3581 53.7801C38.0091 53.5058 38.2638 52.7288 37.9323 52.1049L37.8103 51.8753C37.5452 51.3762 37.7551 50.767 38.254 50.5015V50.5015C41.2444 48.9451 43.8954 46.8214 46.0558 44.2517C48.2162 41.682 49.8434 38.7167 50.8447 35.525C51.846 32.3333 52.2016 28.9779 51.8913 25.6503C51.581 22.3227 50.6108 19.0881 49.0362 16.1313V16.1313C48.7757 15.6352 48.9462 15.0176 49.4431 14.7586L49.6905 14.6297C50.3199 14.3015 50.5506 13.5129 50.1663 12.916C47.8834 9.37006 44.819 6.37998 41.2028 4.17004C40.599 3.80107 39.815 4.05141 39.4919 4.68088V4.68088C39.1706 5.30676 38.3993 5.52975 37.7681 5.21902C34.1628 3.44428 30.1874 2.52797 26.1603 2.54343C25.45 2.54615 24.8543 1.98327 24.8467 1.273V1.273C24.8392 0.575273 24.2502 0.0258162 23.5555 0.0913467C18.6108 0.557788 13.8696 2.30586 9.81529 5.16906C5.77029 8.02567 2.56516 11.8821 0.513891 16.3427C0.222279 16.9768 0.571011 17.7106 1.23732 17.9185V17.9185C1.90866 18.1279 2.25206 18.8686 2.0152 19.5308C0.90813 22.6256 0.41678 25.9073 0.573082 29.1946C0.75013 32.9182 1.75384 36.5577 3.51296 39.8547C3.51855 39.8649 3.52415 39.8751 3.52975 39.8854C3.87 40.5072 3.6451 41.2935 3.01633 41.6207V41.6207C2.38471 41.9494 2.15741 42.7432 2.55014 43.3371C3.60161 44.9273 4.81483 46.407 6.17087 47.753C6.67887 48.2572 7.49667 48.2321 7.99211 47.7155V47.7155C8.49568 47.1904 9.32464 47.1579 9.88834 47.6178C14.1195 51.0698 19.3555 53.0983 24.8321 53.4068C25.5073 53.4448 26.0117 54.0647 25.8737 54.7267V54.7267C25.7367 55.384 26.2271 56.0076 26.8984 55.995C30.4964 55.9274 34.0477 55.1753 37.3581 53.7801ZM4.88674 39.1172C2.66018 34.9356 1.73755 30.195 2.23555 25.4948C2.73353 20.7948 4.62977 16.3463 7.68447 12.7118C10.7391 9.0774 14.8151 6.42037 19.3969 5.07671C23.9786 3.73305 28.8604 3.76312 33.425 5.1631C37.9894 6.56309 42.0315 9.27012 45.0403 12.9419C48.0489 16.6136 49.889 21.0851 50.3277 25.791C50.7665 30.497 49.7842 35.2258 47.5052 39.3796C45.2261 43.5335 41.7526 46.9258 37.5239 49.1275C31.8519 52.0712 25.2309 52.6706 19.1127 50.7941C12.9945 48.9176 7.87856 44.7183 4.88674 39.1172Z" fill="#5B6AF3"/>
<path d="M27.2387 24.9868L27.3558 25.0333C27.4632 25.0866 27.5783 25.1257 27.6976 25.1496C27.8843 25.1885 28.0765 25.2002 28.2672 25.1845C28.5161 25.1701 28.7608 25.1191 28.992 25.0333C30.03 24.6902 31.1567 23.7278 31.7833 22.5124C31.9412 22.2061 32.0479 21.8797 32.0999 21.5442C32.1388 21.2181 32.1313 20.8886 32.0777 20.5643C32.0355 20.269 31.9678 19.9774 31.8751 19.692C31.7957 19.4357 31.7016 19.1833 31.5934 18.936C31.4343 18.5656 31.2327 18.2118 30.9921 17.8805C30.8054 17.6537 30.6757 17.5316 30.6757 17.5316C30.5789 17.4168 30.4611 17.3184 30.3275 17.2408C29.9106 16.9778 29.424 16.823 28.9192 16.7931C28.6825 16.798 28.4499 16.8516 28.2388 16.9501C28.1002 16.9856 27.9664 17.0353 27.84 17.0984C27.2608 17.3572 26.1848 18.055 25.5171 19.7734C24.7385 21.8814 25.7417 24.3646 27.2387 24.9868Z" fill="#F5F5FA"/>
<path d="M26.4598 17.0414C26.6853 16.8802 26.9269 16.7391 27.1814 16.6198C27.1814 16.5936 27.1814 16.5674 27.1814 16.5413C27.1814 16.5674 27.1814 16.5936 27.1814 16.6169C27.4318 16.4965 27.7044 16.4195 27.9853 16.39C28.7068 16.3406 28.653 16.047 28.0928 15.102C28.0107 14.9723 27.9119 14.8523 27.7986 14.7444C27.3554 14.3512 26.7924 14.0915 26.1845 14C26.179 14.4192 26.2311 14.8373 26.3395 15.2445C26.4535 15.8373 26.4938 16.4402 26.4598 17.0414Z" fill="#F5F5FA"/>
<path d="M20.0331 25.6778C20.2741 25.8244 20.546 25.9229 20.8312 25.967C21.1162 26.0111 21.4083 25.9997 21.6883 25.9337L22.1251 25.7767C22.2953 25.7143 22.4612 25.6424 22.6219 25.5614C22.8282 25.4613 23.0289 25.3517 23.2232 25.2329C23.4614 25.0907 23.6748 24.9162 23.8562 24.7153C24.06 24.4894 24.2294 24.239 24.3594 23.971C24.4132 23.8256 24.4797 23.6802 24.5239 23.5261C24.5683 23.372 24.5841 23.2005 24.6094 23.0318C24.6347 22.8632 24.5936 22.7265 24.5873 22.5694V22.4532L24.5651 22.3195L24.5208 22.0723C24.3974 21.4587 24.2612 20.8453 24.0872 20.2783C23.9366 19.7606 23.7462 19.2534 23.5176 18.7605C23.4315 18.5582 23.3256 18.3635 23.201 18.179C23.1217 18.031 23.0263 17.8907 22.9163 17.7602L22.6282 17.4229C22.4481 17.1983 22.1958 17.0315 21.9066 16.9461C20.4604 16.6175 19.1596 16.6874 18.4254 18.4901C17.6911 20.2928 17.3177 23.0085 18.5614 24.4507C18.958 24.9459 19.4584 25.363 20.0331 25.6778Z" fill="#F5F5FA"/>
<path d="M21.4783 16.0951C21.5036 16.0966 21.529 16.0966 21.5543 16.0951C22.143 16.0718 21.9499 16.4643 22.662 16.4149C23.1272 16.3858 22.8961 15.4205 22.681 14.743C22.5607 14.3767 22.4467 14.0917 22.4467 14.0917C22.4467 14.0917 22.5765 13.7079 21.665 14.5104C21.1534 14.9299 20.7722 15.4668 20.5605 16.066C20.865 16.0994 21.172 16.1091 21.4783 16.0951Z" fill="#F5F5FA"/>
<path d="M15.6602 23.2737C15.7212 23.2486 15.7848 23.2292 15.85 23.2156C16.0399 23.2156 16.4197 23.1313 16.4197 23.1313C16.1777 22.8455 16.0207 22.5068 15.9639 22.1485C15.9639 22.0845 15.9639 22.0177 15.9639 21.9508C15.9625 21.4708 15.9213 20.9916 15.8406 20.5173L15.8057 20.5726C15.4024 21.2145 15.12 21.9144 14.9702 22.6428C14.7994 23.5325 15.3373 23.3784 15.6602 23.2737Z" fill="#F5F5FA"/>
<path d="M33.7877 20.9843C33.8001 21.0025 33.815 21.0191 33.832 21.0338C33.9301 21.342 34.2213 21.2722 34.5441 21.2053C34.704 21.1612 34.8711 21.1435 35.0378 21.1529C35.5062 21.2024 35.8638 20.9726 35.7467 20.3185C35.6164 19.9357 35.3873 19.5876 35.0789 19.3037C34.8649 19.0756 34.6367 18.8591 34.3954 18.6553C34.299 19.0223 34.2334 19.3956 34.1991 19.7718C34.1833 19.7895 34.1684 19.8079 34.1548 19.8271C34.139 19.8678 34.0693 19.894 34.0409 19.9317C33.9181 20.0425 33.8212 20.1751 33.756 20.3214C33.7192 20.4043 33.6948 20.4912 33.6833 20.5801C33.6778 20.662 33.6843 20.7441 33.7023 20.8244C33.7216 20.8814 33.7504 20.9353 33.7877 20.9843Z" fill="#F5F5FA"/>
<path d="M35.0604 34.48C35.0289 34.3463 34.9718 34.227 34.9307 34.102C34.8895 33.977 34.8389 33.8578 34.7946 33.7385C34.7429 33.6166 34.676 33.5004 34.5953 33.3925C34.4804 33.1763 34.3264 32.9796 34.1395 32.811L33.8958 32.5813C33.7977 32.5028 33.7091 32.4534 33.6205 32.3923C33.3184 32.1921 32.9938 32.0225 32.6521 31.8864L31.7659 31.5374C31.7259 31.4935 31.6929 31.4445 31.6678 31.3921C31.0417 30.2754 30.195 29.2756 29.1707 28.4437C29.0544 28.3593 28.9255 28.2908 28.7878 28.2402C28.6806 28.1378 28.5675 28.0408 28.4492 27.9494C27.6928 27.3999 25.0122 27.0975 25.0122 27.0975C24.4389 27.1275 23.8804 27.2765 23.3789 27.5334C22.8773 27.7902 22.4456 28.1482 22.1164 28.5804C21.9951 28.7321 21.8892 28.8937 21.8 29.063C21.1258 30.3482 21.0498 30.8076 21.0245 31.0984C21.0069 31.4009 20.8761 31.6885 20.6543 31.9126C20.6405 31.9333 20.6246 31.9528 20.6068 31.9707C20.5846 31.994 20.5688 32.0201 20.5467 32.0405L20.3409 32.2964C19.4548 33.4362 18.4421 35.2767 18.863 37.0067C19.1794 38.2454 19.8631 39.3329 20.8885 39.8185C21.4456 40.0721 22.0825 40.1359 22.686 39.9987L22.933 39.9464C23.0912 39.9085 23.3317 39.8679 23.6229 39.7806C23.914 39.6934 24.2558 39.5829 24.6831 39.4899C25.1381 39.3912 25.6087 39.3685 26.0724 39.4229C26.3288 39.4695 26.5914 39.4985 26.8636 39.5597L27.7086 39.7748C28.2688 39.9347 28.8638 40.1469 29.4651 40.3738C30.0867 40.6543 30.7451 40.8595 31.4241 40.9844C32.1932 41.092 32.9558 40.6239 33.3862 40.1383C33.8585 39.6416 34.24 39.078 34.5161 38.4692C34.6654 38.179 34.7841 37.8761 34.8705 37.565L35.013 37.1085C35.0383 36.9544 35.0668 36.8003 35.0921 36.6491C35.1175 36.4979 35.1427 36.3584 35.1712 36.1955C35.1997 36.0327 35.1712 35.9047 35.1712 35.7448C35.1712 35.5849 35.1712 35.4541 35.1712 35.3058C35.1712 35.1574 35.1269 35.015 35.1048 34.8725L35.0604 34.48Z" fill="#F5F5FA"/>
<path d="M37.5728 24.4549C37.4946 24.2526 37.395 24.0578 37.2754 23.8734C37.1817 23.7284 37.0758 23.5903 36.9588 23.4605C36.8875 23.3775 36.808 23.3006 36.7215 23.2308L36.636 23.1523C36.2541 22.7981 35.7622 22.5614 35.2277 22.4748C35.1084 22.506 34.9812 22.4988 34.8669 22.4544C34.9826 22.4976 35.1109 22.5037 35.2309 22.4719C35.1433 22.4532 35.0545 22.4395 34.965 22.4311C34.9083 22.4068 34.8471 22.392 34.7846 22.3876C34.4682 22.3469 33.7149 22.4196 32.794 23.5507C32.6507 23.6751 32.5155 23.8071 32.3889 23.9461C32.2781 24.0711 32.142 24.2135 32.0123 24.3764C31.8758 24.5501 31.7612 24.7373 31.6705 24.9346C31.5677 25.1232 31.4779 25.3174 31.4015 25.5162C31.3319 25.7081 31.2907 25.8941 31.2433 26.0483C31.1515 26.3391 31.0976 26.5687 31.0976 26.5687C30.7812 26.9787 30.7305 27.8335 31.3666 28.8251C31.8319 29.5491 33.0345 30.8605 34.0947 31.442C34.403 31.6442 34.7814 31.7353 35.1581 31.6978C35.1581 31.6978 35.329 31.6978 35.6233 31.6426C35.803 31.6213 35.9799 31.5843 36.1519 31.5321C36.2656 31.5096 36.3734 31.466 36.4683 31.4042C36.5899 31.3537 36.6979 31.2792 36.7848 31.1861C36.9821 30.993 37.1445 30.7721 37.2659 30.5319C37.3955 30.2669 37.5013 29.9927 37.5823 29.7119C37.6551 29.4212 37.75 29.1304 37.8007 28.8251C37.8513 28.5198 37.902 28.2087 37.9368 27.8947C38.089 26.7374 37.9648 25.5636 37.5728 24.4549Z" fill="#F5F5FA"/>
<path d="M18.3722 32.4601C18.5083 32.3699 18.6539 32.2798 18.79 32.1692C18.9177 32.0395 19.0351 31.9015 19.1413 31.7564C19.2268 31.605 19.3039 31.4497 19.3723 31.2911C19.6128 30.6689 19.98 30.0351 20.2996 29.3663C20.4706 29.0252 20.5858 28.6626 20.6414 28.2905C20.6555 28.1891 20.6555 28.0866 20.6414 27.9852C20.6206 27.8815 20.5775 27.7827 20.5148 27.6944C20.3955 27.5522 20.2677 27.4163 20.1318 27.2873C19.6255 26.7901 19.1539 26.322 18.7203 25.9586C17.8627 25.2171 17.2709 24.7461 17.2709 24.7461C17.0839 24.5662 16.8709 24.4106 16.6379 24.2837C16.1506 24.1151 15.1695 24.5048 15.1695 24.5048C15.1695 24.5048 14.1883 24.5338 14.0491 26.7262C13.9099 28.9186 13.9858 30.8463 15.372 31.9599C15.5651 32.1144 15.7776 32.2471 16.0049 32.3554C16.0049 32.3554 16.1758 32.4397 16.4955 32.5705C16.7019 32.6294 16.9137 32.6703 17.1285 32.6927C17.2487 32.6927 17.3817 32.7101 17.5209 32.6927L17.9576 32.6229L18.3722 32.4601Z" fill="#F5F5FA"/>
</svg>
