<svg width="32" height="32" viewBox="0 0 32 32" fill="none" xmlns="http://www.w3.org/2000/svg">
<rect width="32" height="32" rx="16" fill="url(#paint0_radial_16_33)"/>
<path d="M21.1436 12.5015C20.7781 12.2878 20.3081 12.2878 19.8903 12.5015L16.9661 14.2641L14.9817 15.3858L12.1097 17.1484C11.7441 17.362 11.2742 17.362 10.8564 17.1484L8.61097 15.7596C8.24543 15.546 7.98433 15.1187 7.98433 14.638V11.9674C7.98433 11.5401 8.19321 11.1128 8.61097 10.8457L10.8564 9.51039C11.2219 9.29674 11.6919 9.29674 12.1097 9.51039L14.3551 10.8991C14.7206 11.1128 14.9817 11.5401 14.9817 12.0208V13.7834L16.9661 12.6083V10.7923C16.9661 10.365 16.7572 9.93769 16.3394 9.67062L12.1619 7.16024C11.7963 6.94659 11.3264 6.94659 10.9086 7.16024L6.62663 9.72404C6.20888 9.93769 6 10.365 6 10.7923V15.8131C6 16.2404 6.20888 16.6677 6.62663 16.9347L10.8564 19.4451C11.2219 19.6588 11.6919 19.6588 12.1097 19.4451L14.9817 17.7359L16.9661 16.5608L19.8381 14.8516C20.2037 14.638 20.6736 14.638 21.0914 14.8516L23.3368 16.1869C23.7023 16.4006 23.9634 16.8279 23.9634 17.3086V19.9792C23.9634 20.4065 23.7546 20.8338 23.3368 21.1009L21.1436 22.4362C20.7781 22.6499 20.3081 22.6499 19.8903 22.4362L17.6449 21.1009C17.2794 20.8872 17.0183 20.4599 17.0183 19.9792V18.27L15.0339 19.4451V21.2077C15.0339 21.635 15.2428 22.0623 15.6606 22.3294L19.8903 24.8398C20.2559 25.0534 20.7258 25.0534 21.1436 24.8398L25.3734 22.3294C25.7389 22.1157 26 21.6884 26 21.2077V16.1335C26 15.7062 25.7911 15.2789 25.3734 15.0119L21.1436 12.5015Z" fill="white"/>
<defs>
<radialGradient id="paint0_radial_16_33" cx="0" cy="0" r="1" gradientUnits="userSpaceOnUse" gradientTransform="translate(16 32) rotate(-116.565) scale(35.7771 17.8885)">
<stop stop-color="#BB5BF0"/>
<stop offset="1" stop-color="#7B3FE4"/>
</radialGradient>
</defs>
</svg>
