<svg width="25" height="25" viewBox="0 0 25 25" fill="none" xmlns="http://www.w3.org/2000/svg">
<path d="M16.9959 14.8204L19.7838 12.7305C23.0884 10.2507 24.5512 5.25026 23.8123 1.18772C19.7484 0.448826 14.7479 1.91161 12.2695 5.21617L10.1796 8.00406M16.9959 14.8204L12.9138 17.7362C12.5161 18.0203 11.9712 17.9752 11.6255 17.6296L7.37045 13.3745C7.02478 13.0288 6.97969 12.4839 7.26382 12.0862L10.1796 8.00406M16.9959 14.8204V18.4562C16.9959 19.6361 16.6133 20.7842 15.9053 21.7281L14.951 23L13.5878 21.6367M10.1796 8.00406H6.54377C5.36389 8.00406 4.21583 8.38674 3.27193 9.09467L2 10.049L3.36327 11.4122" stroke="#5B6AF3" stroke-width="2" stroke-linecap="round"/>
<path d="M8 20.5714L3 22L4.66571 17M17.5 9C17.8978 9 18.2794 8.84196 18.5607 8.56066C18.842 8.27936 19 7.89782 19 7.5C19 7.10218 18.842 6.72065 18.5607 6.43934C18.2794 6.15804 17.8978 6 17.5 6C17.1022 6 16.7206 6.15804 16.4393 6.43934C16.158 6.72065 16 7.10218 16 7.5C16 7.89782 16.158 8.27936 16.4393 8.56066C16.7206 8.84196 17.1022 9 17.5 9Z" stroke="#F5F5FA" stroke-width="2" stroke-linecap="round"/>
</svg>
