<svg width="24" height="24" viewBox="0 0 24 24" fill="none" xmlns="http://www.w3.org/2000/svg">
<path d="M14 12C14 12.5304 13.7893 13.0391 13.4142 13.4142C13.0391 13.7893 12.5304 14 12 14C11.4696 14 10.9609 13.7893 10.5858 13.4142C10.2107 13.0391 10 12.5304 10 12C10 11.4696 10.2107 10.9609 10.5858 10.5858C10.9609 10.2107 11.4696 10 12 10C12.5304 10 13.0391 10.2107 13.4142 10.5858C13.7893 10.9609 14 11.4696 14 12Z" stroke="#6D6D8F" stroke-width="2" stroke-linejoin="round"/>
<path d="M10.0568 2.24424C10.8215 0.585253 13.1791 0.585253 13.9438 2.24424L14.2208 2.84508C14.4461 3.3339 14.8474 3.7198 15.3447 3.92581C15.8419 4.13183 16.3986 4.14282 16.9036 3.95658L17.526 3.72793C19.2384 3.09533 20.905 4.76194 20.2724 6.47555L20.0437 7.09671C19.8575 7.60172 19.8685 8.15837 20.0745 8.65563C20.2805 9.15289 20.6664 9.55422 21.1552 9.77955L21.7573 10.0565C23.4151 10.8212 23.4151 13.1788 21.7573 13.9435L21.1552 14.2205C20.6664 14.4458 20.2805 14.8471 20.0745 15.3444C19.8685 15.8416 19.8575 16.3983 20.0437 16.9033L20.2724 17.5257C20.905 19.2381 19.2384 20.9047 17.5248 20.2721L16.9036 20.0434C16.3986 19.8572 15.8419 19.8682 15.3447 20.0742C14.8474 20.2802 14.4461 20.6661 14.2208 21.1549L13.9438 21.7558C13.1791 23.4147 10.8215 23.4147 10.0568 21.7558L9.77987 21.1549C9.55453 20.6661 9.15321 20.2802 8.65595 20.0742C8.15869 19.8682 7.60204 19.8572 7.09703 20.0434L6.47459 20.2721C4.76226 20.9047 3.09565 19.2381 3.72698 17.5245L3.9569 16.9033C4.14313 16.3983 4.13215 15.8416 3.92613 15.3444C3.72012 14.8471 3.33421 14.4458 2.8454 14.2205L2.24329 13.9435C0.585571 13.1788 0.585571 10.8212 2.24329 10.0565L2.8454 9.77955C3.33421 9.55422 3.72012 9.15289 3.92613 8.65563C4.13215 8.15837 4.14313 7.60172 3.9569 7.09671L3.72825 6.47428C3.09565 4.76194 4.76226 3.09533 6.47586 3.72666L7.09703 3.95658C7.60204 4.14282 8.15869 4.13183 8.65595 3.92581C9.15321 3.7198 9.55453 3.3339 9.77987 2.84508L10.0568 2.24297V2.24424Z" stroke="#6D6D8F" stroke-width="2" stroke-linejoin="round"/>
</svg>
