<svg width="32" height="32" viewBox="0 0 32 32" fill="none" xmlns="http://www.w3.org/2000/svg">
<rect width="32" height="32" rx="16" fill="url(#paint0_radial_16_39)"/>
<path d="M11.8432 19.6853C11.9488 19.5775 12.094 19.5146 12.248 19.5146H22.7131C22.9683 19.5146 23.0959 19.829 22.9155 20.0132L20.1568 22.8293C20.0512 22.9371 19.906 23 19.752 23H9.28688C9.03169 23 8.90409 22.6856 9.08448 22.5014L11.8432 19.6853Z" fill="white"/>
<path d="M11.8432 9.17068C11.9532 9.06288 12.0984 9 12.248 9H22.7131C22.9683 9 23.0959 9.31441 22.9155 9.49856L20.1568 12.3147C20.0512 12.4225 19.906 12.4854 19.752 12.4854H9.28688C9.03169 12.4854 8.90409 12.171 9.08448 11.9868L11.8432 9.17068Z" fill="white"/>
<path d="M20.1568 14.3943C20.0512 14.2865 19.906 14.2236 19.752 14.2236H9.28688C9.03169 14.2236 8.90409 14.538 9.08448 14.7222L11.8432 17.5383C11.9488 17.6461 12.094 17.709 12.248 17.709H22.7131C22.9683 17.709 23.0959 17.3946 22.9155 17.2105L20.1568 14.3943Z" fill="white"/>
<defs>
<radialGradient id="paint0_radial_16_39" cx="0" cy="0" r="1" gradientUnits="userSpaceOnUse" gradientTransform="rotate(45) scale(45.2548)">
<stop stop-color="#00FFA3"/>
<stop offset="1" stop-color="#DC1FFF"/>
</radialGradient>
</defs>
</svg>
