<svg width="22" height="25" viewBox="0 0 22 25" fill="none" xmlns="http://www.w3.org/2000/svg">
<path d="M11 2C7.25 7.5 1 9.7 1 15.2C1 17.4 3.5 19.6 6 19.6C6.29323 19.6 6.53297 19.6 6.7443 19.5858C7.97644 19.503 9.26227 19.5915 9.00975 20.8004C8.82765 21.672 8.34134 22.7581 7.25 24H14.75C13.9424 22.934 13.4972 21.9828 13.2644 21.1835C12.8866 19.8859 14.2737 19.5821 15.6251 19.5986C15.7403 19.6 15.8644 19.6 16 19.6C18.5 19.6 21 17.4 21 15.2C21 9.7 14.75 7.5 11 2Z" stroke="#6D6D8F" stroke-width="2"/>
</svg>
