<svg
  width="167"
  height="24"
  viewBox="0 0 167 24"
  fill="none"
  xmlns="http://www.w3.org/2000/svg"
>
  <path
    d="M118.803 13H71.1443L69 24H116.659L165.589 20.2424L167 13H118.803Z"
    fill="url(#paint0_linear_327_20)"
  />
  <path
    d="M9.81919 11H2L3.29736 4.15226H6.91037L6.15218 8.17611H10.3426C12.563 8.17611 14.3203 6.95822 14.3203 5.19102C14.3203 3.84473 13.0991 2.85966 11.3354 2.85966H3.51936L6.37428 0H11.8905C15.5733 0 18 1.90448 18 4.66562C17.9873 8.20889 14.2855 11 9.81919 11Z"
    fill="#F5F5FA"
    fill-opacity="0.88"
  />
  <path
    d="M37 4.50588C37 8.88455 33.7021 11 26.8951 11C21.6515 11 19 9.55309 19 6.47964C19 2.10106 22.2979 0 29.1081 0C34.3518 0 37 1.41803 37 4.50588ZM33.2272 4.8387C33.2272 3.11972 31.8486 2.76951 28.5441 2.76951C23.6632 2.76951 22.7761 3.42357 22.7761 6.1613C22.7761 7.88028 24.1711 8.23049 27.4393 8.23049C32.3202 8.23049 33.2272 7.56195 33.2272 4.8387Z"
    fill="#F5F5FA"
    fill-opacity="0.88"
  />
  <path
    d="M49.0335 6.85993C48.5619 5.81373 48.1478 4.74563 47.793 3.65997C47.2814 4.42375 46.6829 5.20501 45.3681 6.84255L42.9648 9.86899C42.7343 10.2086 42.4169 10.4895 42.0413 10.6865C41.6656 10.8834 41.2434 10.9902 40.8126 10.9973C40.5967 11.0094 40.3803 10.9808 40.1765 10.9131C39.9727 10.8455 39.7856 10.7401 39.6264 10.6035C39.4671 10.4669 39.3391 10.3017 39.2499 10.1177C39.1606 9.93389 39.112 9.73512 39.1071 9.53335L38 0.173612H41.5135L41.8887 3.88273C41.991 5.07765 42.0778 5.95141 42.112 6.81078C42.6237 6.07877 43.1849 5.25126 44.261 3.86825L46.3077 1.19202C47.1108 0.159129 47.6908 0 48.5436 0C49.3963 0 49.9576 0.14175 50.3515 1.19202L51.3748 3.88273C51.9205 5.34676 52.1935 6.09615 52.4322 6.81078C52.7579 5.96879 53.1672 5.07475 53.7471 3.88273L55.5365 0.173612H59L54.2867 9.53335C53.7906 10.5199 52.9378 10.9973 52.0353 10.9973C51.6541 11.0159 51.2772 10.9149 50.9647 10.7104C50.6522 10.506 50.4221 10.2097 50.3111 9.86899L49.0335 6.85993Z"
    fill="#F5F5FA"
    fill-opacity="0.88"
  />
  <path
    d="M68.5442 10.412L62.4947 4.55836L61.2886 10.8111H58L59.7001 1.98727C59.964 0.573054 60.9958 0.000402958 62.0814 0.000402958C62.3404 -0.00502588 62.5973 0.0444672 62.8314 0.14481C63.0654 0.245244 63.2706 0.393813 63.4309 0.578846L69.4794 6.43249L70.7054 0.179736H74L72.2651 8.9949C71.9852 10.412 70.9504 10.9991 69.8997 10.9991C69.6387 11.0073 69.3788 10.9581 69.1427 10.856C68.9067 10.7537 68.7015 10.6016 68.5442 10.412Z"
    fill="#F5F5FA"
    fill-opacity="0.88"
  />
  <path
    d="M87.0147 4.38985C89.604 4.38985 90.9671 5.24444 90.9671 6.8881C90.9671 9.27875 89.3489 11 85.1089 11H74L76.9124 8.17303H85.9403C86.9377 8.17303 87.3681 7.87424 87.3681 7.23467C87.3681 6.78947 86.9924 6.57724 86.244 6.57724H79.7357C77.0289 6.57724 75.8157 5.52538 75.8157 3.92959C75.8157 1.69433 77.4724 0 81.6415 0H92L89.0866 2.86277H80.803C79.8066 2.86277 79.3792 3.10781 79.3792 3.75925C79.3792 4.20455 79.7519 4.38386 80.5185 4.38386L87.0147 4.38985Z"
    fill="#F5F5FA"
    fill-opacity="0.88"
  />
  <path
    d="M104.032 6.85993C103.334 5.21949 103.043 4.42375 102.791 3.65997C102.28 4.42375 101.682 5.20501 100.37 6.84255L97.9636 9.86899C97.7337 10.2083 97.4175 10.4891 97.0421 10.6861C96.6667 10.8831 96.2457 10.99 95.815 10.9973C95.5997 11.0094 95.3833 10.9808 95.1796 10.9131C94.975 10.8455 94.7887 10.7401 94.6287 10.6035C94.4696 10.4669 94.3415 10.3017 94.2523 10.1177C94.1631 9.93389 94.1146 9.73512 94.1097 9.53335L93 0.173612H96.5125L96.8878 3.88273C96.9907 5.07765 97.077 5.95141 97.111 6.81078C97.6231 6.07877 98.1867 5.25126 99.2596 3.86825L101.306 1.19202C102.109 0.159129 102.69 0 103.542 0C104.395 0 104.958 0.14175 105.349 1.19202L106.373 3.88273C106.918 5.34676 107.191 6.09615 107.43 6.81078C107.739 5.96879 108.164 5.07475 108.744 3.88273L110.537 0.173612H114L109.257 9.53335C108.763 10.5199 107.907 10.9973 107.005 10.9973C106.624 11.0159 106.248 10.9149 105.934 10.7104C105.622 10.506 105.392 10.2097 105.281 9.86899L104.032 6.85993Z"
    fill="#F5F5FA"
    fill-opacity="0.88"
  />
  <path
    d="M117.822 11H114L116.198 0H120L117.822 11Z"
    fill="#F5F5FA"
    fill-opacity="0.88"
  />
  <path
    d="M130.545 10.412L124.496 4.55836L123.285 10.8111H120L121.7 1.98725C121.961 0.573032 122.995 0.000377149 124.081 0.000377149C124.34 -0.00487075 124.597 0.0447135 124.831 0.145057C125.066 0.245491 125.272 0.39397 125.432 0.578823L131.482 6.4324L132.707 0.179711H136L134.264 8.99483C133.984 10.412 132.953 10.9991 131.902 10.9991C131.64 11.0075 131.381 10.9585 131.145 10.8563C130.908 10.754 130.703 10.6017 130.545 10.412Z"
    fill="#F5F5FA"
    fill-opacity="0.88"
  />
  <path
    d="M144.169 4.12686H151.868L150.537 11H142.263C138.502 11 136 8.92909 136 6.1499C136 2.53107 139.781 0 144.385 0H153L150.03 2.86277H143.843C141.628 2.86277 139.738 4.15967 139.738 5.91982C139.738 7.28254 140.961 8.17303 142.815 8.17303H147.394L147.698 6.57724H141.435L144.169 4.12686Z"
    fill="#F5F5FA"
    fill-opacity="0.88"
  />
  <path
    d="M7.82229 24H0L1.29162 17.1504H4.90597L4.15711 21.1754H8.34589C10.5673 21.1754 12.3253 19.9601 12.3253 18.1895C12.3253 16.8429 11.1036 15.8575 9.34235 15.8575H1.52006L4.37612 13H9.88819C13.5724 13 16 14.905 16 17.664C15.9936 21.2082 12.2903 24 7.82229 24Z"
    fill="#F5F5FA"
    fill-opacity="0.88"
  />
  <path
    d="M34.0727 17.5048C34.0727 21.8822 30.8512 24 24.2019 24C19.0798 24 16.4929 22.5535 16.4929 19.4808C16.4929 15.1034 19.7144 13 26.3636 13C31.4858 13 34.0727 14.4177 34.0727 17.5048ZM30.3872 17.8403C30.3872 16.1218 29.0406 15.7717 25.8159 15.7717C21.0481 15.7717 20.1783 16.4227 20.1783 19.1597C20.1783 20.8956 21.5442 21.2312 24.7335 21.2312C29.5013 21.2312 30.3872 20.5629 30.3872 17.8403Z"
    fill="#F5F5FA"
    fill-opacity="0.88"
  />
  <path
    d="M43.1518 17.125H50.849L49.5181 24H41.2618C37.5014 24 35 21.9285 35 19.1487C35 15.5318 38.7799 13 43.3839 13H52L49.0343 15.8606H42.8216C40.6078 15.8606 38.7178 17.1609 38.7178 18.9184C38.7178 20.2845 39.9407 21.1723 41.7948 21.1723H46.3725L46.68 19.576H40.4345L43.1518 17.125Z"
    fill="#F5F5FA"
    fill-opacity="0.88"
  />
  <path
    d="M63.9995 17.391C66.5889 17.391 67.9519 18.2459 67.9519 19.89C67.9519 22.2813 66.3327 24 62.0927 24H51L53.9132 21.1723H62.9413C63.9377 21.1723 64.3651 20.8734 64.3651 20.2366C64.3651 19.7913 63.9894 19.576 63.242 19.576H56.7327C54.0265 19.576 52.8159 18.5239 52.8159 16.9307C52.8159 14.6948 54.4732 13 58.6425 13H69L66.0866 15.8606H57.801C56.8035 15.8606 56.3762 16.1087 56.3762 16.7573C56.3762 17.1997 56.7519 17.3821 57.5154 17.3821L63.9995 17.391Z"
    fill="#F5F5FA"
    fill-opacity="0.88"
  />
  <path
    d="M85.9684 17.5009L85.885 17.8317H84.0772L84.1639 17.5009C84.1834 17.4353 84.1769 17.3668 84.1466 17.3039C84.1152 17.2409 84.061 17.1861 83.9905 17.1462C83.8204 17.0436 83.6079 16.9918 83.3912 17.0006H80.3804C80.1431 16.9983 79.9101 17.0489 79.7085 17.1462C79.6218 17.1835 79.5459 17.2344 79.4863 17.2954C79.4267 17.3565 79.3844 17.4265 79.3627 17.5009L78.8458 19.4994C78.8273 19.5646 78.8339 19.6325 78.8653 19.695C78.8956 19.7574 78.9498 19.8117 79.0192 19.8515C79.1893 19.9534 79.4028 20.0051 79.6185 19.9971H82.6293C82.8677 19.9997 83.1029 19.9491 83.3045 19.8515C83.3912 19.8138 83.466 19.7631 83.5256 19.7027C83.5852 19.6421 83.6275 19.573 83.6513 19.4994L83.7348 19.1659H85.5393L85.4558 19.4994C85.3843 19.7228 85.2521 19.9322 85.0678 20.1145C84.8846 20.2968 84.6527 20.4479 84.3893 20.5582C83.7824 20.8503 83.0791 21.0029 82.3627 20.9977H79.3519C78.7027 21.0213 78.0644 20.8653 77.5539 20.5582C77.3426 20.4391 77.18 20.2758 77.0879 20.0879C76.9947 19.9 76.9752 19.6956 77.0315 19.4994L77.5474 17.5009C77.6178 17.277 77.749 17.0669 77.9332 16.8844C78.1164 16.702 78.3483 16.5512 78.6138 16.442C79.2197 16.1488 79.9241 15.9961 80.6405 16.0026H83.648C84.2983 15.9776 84.9378 16.1337 85.4493 16.442C85.6596 16.5617 85.821 16.7252 85.9132 16.913C86.0053 17.1008 86.0248 17.3049 85.9684 17.5009Z"
    fill="#1B1B24"
  />
  <path
    d="M87.7875 19.9984H93L92.7748 21H86L87.1157 16H88.6808L87.7875 19.9984Z"
    fill="#1B1B24"
  />
  <path
    d="M94.029 19.4987L94.8523 16H96.505L95.6658 19.4987C95.6499 19.5642 95.6569 19.6321 95.6856 19.6946C95.7143 19.757 95.7629 19.8113 95.8273 19.851C95.9828 19.9536 96.178 20.0054 96.3752 19.9966H98.5738C98.7918 19.9993 99.0068 19.9487 99.1911 19.851C99.2713 19.8147 99.3407 19.7645 99.3952 19.7036C99.4497 19.6429 99.4883 19.573 99.5081 19.4987L100.334 16H102L101.174 19.4987C101.108 19.7225 100.988 19.9323 100.82 20.1147C100.652 20.2972 100.44 20.4482 100.198 20.5581C99.6439 20.8503 99.0008 21.0029 98.3459 20.9977H96.1285C95.535 21.0209 94.9524 20.8649 94.4847 20.5581C94.2975 20.4352 94.1558 20.2707 94.0745 20.0832C93.9943 19.8959 93.9784 19.6933 94.029 19.4987Z"
    fill="#1B1B24"
  />
  <path
    d="M102 20.9998L102.704 17.9994H107.37C107.594 18.0047 107.814 17.9539 108.002 17.8537C108.082 17.8174 108.151 17.7672 108.207 17.7065C108.261 17.6457 108.299 17.5758 108.318 17.5015C108.335 17.4359 108.329 17.3677 108.302 17.3048C108.273 17.2419 108.224 17.187 108.16 17.1467C108.005 17.0442 107.811 16.9924 107.613 17.001H103.504L103.188 16.0026H107.854C108.447 15.9776 109.031 16.1338 109.497 16.4422C109.69 16.5619 109.836 16.7255 109.921 16.9134C110.005 17.1013 110.022 17.3054 109.972 17.5015C109.915 17.7079 109.808 17.9026 109.659 18.074C109.51 18.2455 109.322 18.3903 109.106 18.4999C109.273 18.6217 109.398 18.7788 109.468 18.9549C109.538 19.131 109.551 19.3195 109.504 19.501C109.438 19.7248 109.317 19.9346 109.149 20.117C108.981 20.2994 108.769 20.4504 108.527 20.5602C107.974 20.8531 107.332 21.0058 106.678 20.9998H102ZM103.896 19.9988H106.918C107.142 20.0037 107.361 19.9531 107.55 19.8532C107.629 19.8161 107.698 19.7656 107.753 19.705C107.807 19.6443 107.846 19.5749 107.866 19.501C107.884 19.4354 107.878 19.3668 107.851 19.3039C107.822 19.2408 107.773 19.1861 107.708 19.146C107.553 19.0434 107.359 18.9916 107.161 19.0004H104.143L103.896 19.9988Z"
    fill="#1B1B24"
  />
  <path
    d="M157.337 0.223267H154.763L152.83 11.0397H155.404L159.57 5.63146L157.337 0.223267Z"
    fill="#29C7A1"
  />
  <path
    d="M164.768 0.223267H162.193L160.26 11.0397H162.835L167 5.63146L164.768 0.223267Z"
    fill="#29C7A1"
  />
  <defs>
    <linearGradient
      id="paint0_linear_327_20"
      x1="94"
      y1="18"
      x2="167"
      y2="18.0613"
      gradientUnits="userSpaceOnUse"
    >
      <stop stopColor="#5B6AF3" />
      <stop offset="0.786458" stopColor="#29C7A1" />
    </linearGradient>
  </defs>
</svg>
