<svg width="32" height="32" viewBox="0 0 32 32" fill="none" xmlns="http://www.w3.org/2000/svg">
<rect width="32" height="32" rx="16" fill="url(#paint0_radial_16_27)"/>
<path d="M19.6573 18.0231C19.6573 16 18.4938 15.3064 16.1668 15.0174C14.5047 14.7861 14.1722 14.3238 14.1722 13.5144C14.1722 12.7051 14.7263 12.185 15.8344 12.185C16.8317 12.185 17.3858 12.5318 17.6628 13.3989C17.7182 13.5723 17.8844 13.6878 18.0506 13.6878H18.937C19.1587 13.6878 19.3249 13.5144 19.3249 13.2833V13.2254C19.1032 11.9537 18.106 10.9711 16.8317 10.8555V9.46825C16.8317 9.23699 16.6655 9.06357 16.3885 9.00572H15.5574C15.3357 9.00572 15.1695 9.17914 15.1141 9.46825V10.7977C13.4519 11.0289 12.3993 12.185 12.3993 13.6301C12.3993 15.5376 13.5074 16.289 15.8344 16.5781C17.3858 16.8671 17.8844 17.2139 17.8844 18.1388C17.8844 19.0637 17.1087 19.6995 16.056 19.6995C14.6154 19.6995 14.1168 19.0636 13.9506 18.1965C13.8952 17.9654 13.729 17.8497 13.5628 17.8497H12.6208C12.3993 17.8497 12.2331 18.0231 12.2331 18.2544V18.3122C12.4546 19.7572 13.3411 20.7977 15.1695 21.0868V22.4741C15.1695 22.7052 15.3357 22.8786 15.6127 22.9365H16.4438C16.6655 22.9365 16.8317 22.7631 16.8871 22.4741V21.0868C18.5493 20.7977 19.6573 19.5838 19.6573 18.0231Z" fill="white"/>
<path d="M13.1743 24.0925C8.85272 22.4741 6.63647 17.4451 8.24331 12.9942C9.07439 10.5664 10.9028 8.71673 13.1743 7.84967C13.396 7.73411 13.5068 7.5607 13.5068 7.27159V6.46238C13.5068 6.23112 13.396 6.05771 13.1743 6C13.1189 6 13.0081 6 12.9527 6.05771C7.68921 7.79182 4.80809 13.6301 6.47025 19.1214C7.46754 22.3584 9.85002 24.844 12.9527 25.8844C13.1743 26 13.396 25.8844 13.4513 25.6532C13.5068 25.5955 13.5068 25.5376 13.5068 25.4221V24.6127C13.5068 24.4393 13.3405 24.2082 13.1743 24.0925ZM19.0473 6.05771C18.8257 5.94215 18.604 6.05771 18.5487 6.28897C18.4932 6.34682 18.4932 6.40453 18.4932 6.52023V7.32944C18.4932 7.5607 18.6595 7.79182 18.8257 7.90752C23.1473 9.52594 25.3635 14.5549 23.7567 19.0058C22.9256 21.4336 21.0972 23.2833 18.8257 24.1503C18.604 24.2659 18.4932 24.4393 18.4932 24.7284V25.5376C18.4932 25.7689 18.604 25.9423 18.8257 26C18.8811 26 18.9919 26 19.0473 25.9423C24.3108 24.2082 27.1919 18.3699 25.5298 12.8786C24.5325 9.58379 22.0945 7.09818 19.0473 6.05771Z" fill="white"/>
<defs>
<radialGradient id="paint0_radial_16_27" cx="0" cy="0" r="1" gradientUnits="userSpaceOnUse" gradientTransform="translate(16 32) rotate(-116.565) scale(35.7771 17.8885)">
<stop stop-color="#54B2E8"/>
<stop offset="1" stop-color="#2775CA"/>
</radialGradient>
</defs>
</svg>
