<svg width="32" height="32" viewBox="0 0 32 32" fill="none" xmlns="http://www.w3.org/2000/svg">
<rect width="32" height="32" rx="16" fill="url(#paint0_radial_16_30)"/>
<path fill-rule="evenodd" clip-rule="evenodd" d="M18.2222 13.5625V11.4297H21.5629C22.7862 11.4297 23.7778 10.4381 23.7778 9.21484C23.7778 7.99162 22.7862 7 21.5629 7L10.4371 7C9.21384 7 8.22222 7.99162 8.22222 9.21484C8.22222 10.4381 9.21384 11.4297 10.4371 11.4297H13.7778V13.5625C9.07734 13.786 6 14.2887 6 15.8594C6 17.5699 9.07734 18.957 13.7778 19.1816V22.7778C13.7778 24.0051 14.7727 25 16 25C17.2273 25 18.2222 24.0051 18.2222 22.7778V19.1816C22.9152 18.9581 26 17.5699 26 15.8594C26 14.2887 22.9152 13.7871 18.2222 13.5625ZM18.0981 17.5835V17.5813C17.9806 17.5902 16.8339 17.6275 16.0235 17.6278C15.201 17.628 14.185 17.5946 13.9179 17.5813V17.5846C9.76444 17.3954 7.11111 16.7557 7.11111 15.8594C7.11111 14.9641 9.6243 14.3908 13.7778 14.1982V15.3057C13.7778 15.3057 14.9253 15.8594 16 15.8594C17.2894 15.8594 18.2222 15.3057 18.2222 15.3057V14.1982C22.3672 14.3897 24.8889 14.9652 24.8889 15.8594C24.8889 16.7557 22.243 17.3932 18.0981 17.5835Z" fill="white"/>
<defs>
<radialGradient id="paint0_radial_16_30" cx="0" cy="0" r="1" gradientUnits="userSpaceOnUse" gradientTransform="translate(16 32) rotate(-116.565) scale(35.7771 17.8885)">
<stop stop-color="#1DE9E9"/>
<stop offset="1" stop-color="#0CBEBE"/>
</radialGradient>
</defs>
</svg>
