<svg width="24" height="24" viewBox="0 0 24 24" fill="none" xmlns="http://www.w3.org/2000/svg">
<g clip-path="url(#clip0_1829_1111)">
<path d="M21.1608 6.28571H4.14272C3.95328 6.28571 3.7716 6.21046 3.63764 6.0765C3.50369 5.94255 3.42843 5.76087 3.42843 5.57143C3.42843 5.38199 3.50369 5.20031 3.63764 5.06635C3.7716 4.9324 3.95328 4.85714 4.14272 4.85714H21.2856C21.475 4.85714 21.6567 4.78189 21.7907 4.64793C21.9246 4.51398 21.9999 4.3323 21.9999 4.14286C21.9999 3.57454 21.7741 3.02949 21.3722 2.62763C20.9704 2.22576 20.4253 2 19.857 2H3.42843C2.67067 2 1.94395 2.30102 1.40813 2.83684C0.872309 3.37266 0.571289 4.09938 0.571289 4.85714L0.571289 19.1429C0.571289 19.9006 0.872309 20.6273 1.40813 21.1632C1.94395 21.699 2.67067 22 3.42843 22H21.1608C21.7454 22.0154 22.3122 21.7985 22.7372 21.3969C23.1622 20.9953 23.4107 20.4416 23.4284 19.8571V8.42857C23.4107 7.84409 23.1622 7.29043 22.7372 6.88881C22.3122 6.48719 21.7454 6.27033 21.1608 6.28571V6.28571Z" fill="#1F43F7"/>
<path d="M9.02857 16.171L9.03524 16.1624L7 18.1929V10.0977L11.0467 14.1491L15.0952 10.0977V18.1929L13.0714 16.171L11.0476 18.1929L9.02857 16.171Z" fill="white"/>
<path d="M20.1362 15.7548C20.8273 15.7548 21.3876 15.1945 21.3876 14.5034C21.3876 13.8122 20.8273 13.252 20.1362 13.252C19.445 13.252 18.8848 13.8122 18.8848 14.5034C18.8848 15.1945 19.445 15.7548 20.1362 15.7548Z" fill="white"/>
</g>
<defs>
<clipPath id="clip0_1829_1111">
<rect width="24" height="20" fill="white" transform="translate(0 2)"/>
</clipPath>
</defs>
</svg>
