<svg width="24" height="24" viewBox="0 0 24 24" fill="none" xmlns="http://www.w3.org/2000/svg">
<path d="M18.5888 2.23877H9.67651V14.2776H21.7096V5.3538C21.7096 3.64445 20.3048 2.23877 18.5986 2.23877C18.5957 2.23877 18.5918 2.23877 18.5888 2.23877Z" fill="#FBFBFB" fill-opacity="0.88"/>
<path d="M6.89815 2.23877H5.36221C3.65606 2.23877 2.25122 3.64543 2.25122 5.3538V6.89172H6.89815V2.23877Z" fill="#FBFBFB" fill-opacity="0.88"/>
<path d="M2.25122 9.67383H6.89815V14.3268H2.25122V9.67383Z" fill="#FBFBFB" fill-opacity="0.88"/>
<path d="M17.1018 21.7222H18.6378C20.3449 21.7222 21.7488 20.3155 21.7488 18.6071C21.7488 18.6042 21.7488 18.6003 21.7488 18.5974V17.1084H17.1018V21.7222Z" fill="#FBFBFB" fill-opacity="0.88"/>
<path d="M9.67651 17.1084H14.3234V21.7614H9.67651V17.1084Z" fill="#FBFBFB" fill-opacity="0.88"/>
<path d="M2.25122 17.1084V18.6463C2.25122 20.3547 3.65606 21.7614 5.36221 21.7614H6.89815V17.1084H2.25122Z" fill="#FBFBFB" fill-opacity="0.88"/>
</svg>
