<svg width="24" height="24" viewBox="0 0 24 24" fill="none" xmlns="http://www.w3.org/2000/svg">
<g clip-path="url(#clip0_1829_1141)">
<path d="M21.375 2H2.625C2.12779 2.00022 1.651 2.19784 1.29942 2.54942C0.947836 2.901 0.750221 3.37779 0.75 3.875V15.125C0.750221 15.6222 0.947836 16.099 1.29942 16.4506C1.651 16.8022 2.12779 16.9998 2.625 17H21.375C21.8722 16.9998 22.349 16.8022 22.7006 16.4506C23.0522 16.099 23.2498 15.6222 23.25 15.125V3.875C23.2498 3.37779 23.0522 2.901 22.7006 2.54942C22.349 2.19784 21.8722 2.00022 21.375 2ZM19.5 21.0625C19.5003 20.9393 19.4763 20.8172 19.4293 20.7033C19.3823 20.5895 19.3133 20.486 19.2261 20.3989C19.139 20.3117 19.0355 20.2427 18.9217 20.1957C18.8078 20.1487 18.6857 20.1247 18.5625 20.125H14.7108L13.9842 17.945C13.9532 17.8515 13.8935 17.7703 13.8136 17.7128C13.7337 17.6553 13.6376 17.6246 13.5392 17.625H10.465C10.3666 17.6246 10.2705 17.6553 10.1906 17.7128C10.1106 17.7703 10.0509 17.8515 10.02 17.945L9.29333 20.125H5.4375C5.18886 20.125 4.9504 20.2238 4.77459 20.3996C4.59877 20.5754 4.5 20.8139 4.5 21.0625C4.5 21.3111 4.59877 21.5496 4.77459 21.7254C4.9504 21.9012 5.18886 22 5.4375 22H18.5625C18.6857 22.0003 18.8078 21.9763 18.9217 21.9293C19.0355 21.8823 19.139 21.8133 19.2261 21.7261C19.3133 21.639 19.3823 21.5355 19.4293 21.4217C19.4763 21.3078 19.5003 21.1857 19.5 21.0625Z" fill="#FBFBFB" fill-opacity="0.88"/>
<path fill-rule="evenodd" clip-rule="evenodd" d="M14.5004 6.98528C14.4847 6.97218 14.4721 6.95574 14.4636 6.93713C14.4551 6.91853 14.4509 6.89823 14.4512 6.87778C14.4506 6.85728 14.4547 6.83694 14.4633 6.81829C14.4718 6.79965 14.4845 6.78321 14.5004 6.77028C14.5327 6.74209 14.5742 6.72656 14.6171 6.72656C14.66 6.72656 14.7014 6.74209 14.7337 6.77028C14.7494 6.78337 14.762 6.79984 14.7705 6.81845C14.7791 6.83705 14.7833 6.85732 14.7829 6.87778C14.7835 6.89827 14.7794 6.91864 14.7709 6.93729C14.7624 6.95593 14.7496 6.97234 14.7337 6.98528C14.7015 7.01363 14.66 7.0293 14.6171 7.0293C14.5741 7.0293 14.5326 7.01363 14.5004 6.98528Z" fill="black"/>
<path fill-rule="evenodd" clip-rule="evenodd" d="M14.0829 7.41877C14.0571 7.38878 14.0424 7.35082 14.0413 7.31127C14.0413 7.26928 14.058 7.22899 14.0876 7.1993C14.1173 7.1696 14.1576 7.15294 14.1996 7.15294C14.2201 7.15212 14.2405 7.15614 14.2592 7.16468C14.2779 7.17323 14.2943 7.18604 14.3071 7.20209C14.333 7.23205 14.3477 7.27003 14.3487 7.30959C14.3493 7.32938 14.3459 7.34909 14.3387 7.36755C14.3316 7.38601 14.3208 7.40283 14.3071 7.41709C14.2771 7.44296 14.2392 7.45769 14.1996 7.45877C14.157 7.46085 14.1153 7.44653 14.0829 7.41877Z" fill="black"/>
<path fill-rule="evenodd" clip-rule="evenodd" d="M13.6263 7.85189C13.5982 7.82283 13.5825 7.78398 13.5825 7.74355C13.5825 7.70312 13.5982 7.66427 13.6263 7.63521C13.657 7.60757 13.6968 7.59229 13.738 7.59229C13.7793 7.59229 13.8191 7.60757 13.8497 7.63521C13.8778 7.66427 13.8935 7.70312 13.8935 7.74355C13.8935 7.78398 13.8778 7.82283 13.8497 7.85189C13.8366 7.86761 13.8201 7.88018 13.8015 7.88869C13.7829 7.8972 13.7626 7.90142 13.7422 7.90105C13.7203 7.90191 13.6985 7.89797 13.6784 7.88948C13.6582 7.88098 13.6401 7.86814 13.6255 7.85189" fill="black"/>
<path fill-rule="evenodd" clip-rule="evenodd" d="M13.1929 8.29231C13.1635 8.26446 13.1461 8.22627 13.1444 8.18583C13.1427 8.14539 13.1568 8.10587 13.1837 8.07564L13.1929 8.06648C13.2251 8.03812 13.2666 8.02246 13.3095 8.02246C13.3525 8.02246 13.394 8.03812 13.4262 8.06648C13.4556 8.09434 13.4729 8.1325 13.4747 8.17294C13.4764 8.21338 13.4623 8.2529 13.4354 8.28313L13.4262 8.29231C13.3934 8.31956 13.3521 8.33445 13.3095 8.33445C13.2669 8.33445 13.2256 8.31956 13.1929 8.29231Z" fill="black"/>
<path fill-rule="evenodd" clip-rule="evenodd" d="M12.7762 8.73301C12.7605 8.71991 12.7479 8.70347 12.7394 8.68487C12.7309 8.66626 12.7267 8.64597 12.7271 8.62551C12.727 8.60513 12.7312 8.58495 12.7392 8.56623C12.7473 8.54751 12.7591 8.53064 12.7739 8.51667C12.7888 8.50269 12.8063 8.49189 12.8255 8.48495C12.8447 8.47802 12.8651 8.4751 12.8854 8.47636C12.904 8.47612 12.9225 8.47969 12.9397 8.48686C12.9569 8.49403 12.9725 8.50462 12.9854 8.51801C13.0001 8.53156 13.0115 8.54828 13.0187 8.56692C13.0259 8.58555 13.0288 8.6056 13.0271 8.62551C13.0271 8.6675 13.0104 8.70779 12.9807 8.73749C12.951 8.76718 12.9107 8.78385 12.8687 8.78385C12.8344 8.77313 12.8027 8.75554 12.7754 8.73217" fill="black"/>
<path fill-rule="evenodd" clip-rule="evenodd" d="M12.2687 9.05882C12.2678 9.0383 12.2719 9.01786 12.2804 8.99918C12.2889 8.9805 12.3018 8.96409 12.3178 8.95129C12.3471 8.92435 12.3856 8.90964 12.4254 8.91017C12.4652 8.9107 12.5033 8.92643 12.5318 8.95414C12.5604 8.98185 12.5773 9.01944 12.579 9.0592C12.5808 9.09896 12.5672 9.13788 12.5412 9.16797C12.5121 9.19607 12.4733 9.21179 12.4328 9.21179C12.3924 9.21179 12.3536 9.19607 12.3245 9.16797C12.308 9.1548 12.2944 9.13825 12.2848 9.11942C12.2752 9.10059 12.2696 9.07994 12.2687 9.05882Z" fill="black"/>
<path fill-rule="evenodd" clip-rule="evenodd" d="M11.4629 10.0138C11.4474 10.0009 11.4355 9.98421 11.4282 9.96541C11.4209 9.94661 11.4185 9.92627 11.4213 9.90629C11.4207 9.8865 11.4241 9.86681 11.4313 9.84835C11.4384 9.8299 11.4492 9.81305 11.4629 9.79879C11.4935 9.77115 11.5333 9.75586 11.5746 9.75586C11.6158 9.75586 11.6556 9.77115 11.6862 9.79879C11.7132 9.82807 11.7281 9.86647 11.7279 9.90629C11.7285 9.92677 11.7243 9.94711 11.7158 9.96574C11.7073 9.98438 11.6946 10.0008 11.6787 10.0138C11.6656 10.0295 11.6491 10.042 11.6306 10.0505C11.612 10.059 11.5917 10.0633 11.5712 10.0629C11.5505 10.064 11.5297 10.0602 11.5107 10.0516C11.4917 10.043 11.475 10.0301 11.4621 10.0138" fill="black"/>
<path fill-rule="evenodd" clip-rule="evenodd" d="M10.9996 10.457C10.9839 10.4438 10.9714 10.4274 10.9629 10.4088C10.9544 10.3902 10.9501 10.3699 10.9505 10.3495C10.9506 10.3291 10.9551 10.309 10.9635 10.2904C10.972 10.2719 10.9843 10.2554 10.9996 10.242C11.0337 10.2137 11.0766 10.1982 11.1209 10.1982C11.1651 10.1982 11.208 10.2137 11.2421 10.242C11.2578 10.2551 11.2703 10.2716 11.2789 10.2902C11.2874 10.3087 11.2916 10.329 11.2913 10.3495C11.2912 10.3698 11.2867 10.39 11.2782 10.4085C11.2698 10.427 11.2575 10.4435 11.2421 10.457C11.2112 10.4881 11.1693 10.5057 11.1254 10.5061C11.0803 10.4994 11.0373 10.4826 10.9996 10.457Z" fill="black"/>
<path fill-rule="evenodd" clip-rule="evenodd" d="M10.5887 10.8931C10.5664 10.871 10.5513 10.8428 10.5451 10.8121C10.5389 10.7814 10.542 10.7495 10.554 10.7205C10.5659 10.6915 10.5862 10.6667 10.6123 10.6493C10.6383 10.6319 10.669 10.6226 10.7003 10.6226C10.7317 10.6226 10.7623 10.6319 10.7884 10.6493C10.8145 10.6667 10.8347 10.6915 10.8467 10.7205C10.8586 10.7495 10.8617 10.7814 10.8556 10.8121C10.8494 10.8428 10.8342 10.871 10.812 10.8931C10.7814 10.9208 10.7416 10.9361 10.7003 10.9361C10.6591 10.9361 10.6193 10.9208 10.5887 10.8931Z" fill="black"/>
<path fill-rule="evenodd" clip-rule="evenodd" d="M10.1554 11.3303C10.1402 11.3168 10.128 11.3002 10.1196 11.2817C10.1111 11.2632 10.1065 11.2432 10.1062 11.2228C10.1082 11.1815 10.1256 11.1424 10.1548 11.1131C10.1841 11.0839 10.2232 11.0665 10.2645 11.0645C10.2843 11.064 10.304 11.0674 10.3225 11.0745C10.3409 11.0817 10.3578 11.0924 10.372 11.1062C10.3979 11.1361 10.4126 11.1741 10.4137 11.2137C10.4143 11.2536 10.3994 11.2921 10.372 11.3212C10.342 11.347 10.3041 11.3617 10.2645 11.3628C10.2451 11.3685 10.2245 11.3685 10.2052 11.3627C10.1858 11.3569 10.1685 11.3457 10.1554 11.3303Z" fill="black"/>
<path fill-rule="evenodd" clip-rule="evenodd" d="M9.69965 11.7678C9.68393 11.7547 9.67136 11.7382 9.66285 11.7196C9.65434 11.701 9.65012 11.6807 9.65049 11.6603C9.64968 11.6398 9.6537 11.6193 9.66224 11.6007C9.67078 11.582 9.6836 11.5656 9.69965 11.5528C9.7319 11.5244 9.77336 11.5088 9.81631 11.5088C9.85925 11.5088 9.90074 11.5244 9.93299 11.5528C9.9487 11.5659 9.96127 11.5823 9.96978 11.601C9.97829 11.6196 9.98252 11.6398 9.98214 11.6603C9.98296 11.6808 9.97894 11.7012 9.97039 11.7199C9.96185 11.7386 9.94904 11.755 9.93299 11.7678C9.90066 11.796 9.8592 11.8115 9.81631 11.8115C9.77341 11.8115 9.73198 11.796 9.69965 11.7678Z" fill="black"/>
<path fill-rule="evenodd" clip-rule="evenodd" d="M9.28121 12.2038C9.25357 12.1732 9.23828 12.1334 9.23828 12.0922C9.23828 12.0509 9.25357 12.0111 9.28121 11.9805C9.31037 11.9526 9.34918 11.937 9.38955 11.937C9.42991 11.937 9.46872 11.9526 9.49788 11.9805C9.52552 12.0111 9.54081 12.0509 9.54081 12.0922C9.54081 12.1334 9.52552 12.1732 9.49788 12.2038C9.46872 12.2317 9.42991 12.2473 9.38955 12.2473C9.34918 12.2473 9.31037 12.2317 9.28121 12.2038Z" fill="black"/>
<path fill-rule="evenodd" clip-rule="evenodd" d="M9.49878 6.98561C9.52465 6.95566 9.53936 6.91768 9.54044 6.87812C9.54044 6.83612 9.52377 6.79584 9.49408 6.76614C9.46438 6.73645 9.42409 6.71978 9.3821 6.71978C9.36232 6.71925 9.34263 6.72265 9.32417 6.7298C9.30571 6.73695 9.28886 6.74771 9.2746 6.76144C9.25888 6.77453 9.24631 6.791 9.2378 6.8096C9.2293 6.82821 9.22507 6.84848 9.22545 6.86894C9.22463 6.88946 9.22865 6.9099 9.23719 6.92857C9.24574 6.94725 9.25855 6.96363 9.2746 6.97643C9.28857 6.99186 9.30545 7.00438 9.3243 7.01321C9.34314 7.02204 9.36357 7.027 9.38437 7.02786C9.40516 7.02871 9.4259 7.02542 9.4454 7.01817C9.4649 7.01091 9.48276 6.99985 9.49794 6.98561" fill="black"/>
<path fill-rule="evenodd" clip-rule="evenodd" d="M9.93201 7.41792C9.94773 7.40482 9.96032 7.38836 9.96883 7.36975C9.97734 7.35115 9.98157 7.33088 9.98119 7.31042C9.98201 7.2899 9.97799 7.26946 9.96944 7.25078C9.9609 7.23211 9.94807 7.21572 9.93201 7.20292C9.89968 7.17473 9.85825 7.15918 9.81536 7.15918C9.77246 7.15918 9.731 7.17473 9.69868 7.20292C9.68296 7.21602 9.67039 7.23246 9.66188 7.25106C9.65337 7.26967 9.64914 7.28996 9.64952 7.31042C9.6487 7.33094 9.65273 7.35136 9.66127 7.37003C9.66981 7.38871 9.68262 7.40512 9.69868 7.41792C9.73092 7.44628 9.77241 7.46191 9.81536 7.46191C9.8583 7.46191 9.89976 7.44628 9.93201 7.41792Z" fill="black"/>
<path fill-rule="evenodd" clip-rule="evenodd" d="M10.3722 7.85189C10.4003 7.82283 10.416 7.78398 10.416 7.74355C10.416 7.70312 10.4003 7.66427 10.3722 7.63521C10.3415 7.60757 10.3017 7.59229 10.2605 7.59229C10.2192 7.59229 10.1794 7.60757 10.1488 7.63521C10.1224 7.66552 10.1053 7.70289 10.0997 7.74274C10.0991 7.76252 10.1025 7.78221 10.1097 7.80067C10.1168 7.81913 10.1276 7.83598 10.1413 7.85023C10.1544 7.86595 10.1709 7.87852 10.1895 7.88703C10.2081 7.89554 10.2284 7.89977 10.2488 7.89939C10.2716 7.90227 10.2948 7.89952 10.3163 7.89138C10.3378 7.88325 10.357 7.86998 10.3722 7.85273" fill="black"/>
<path fill-rule="evenodd" clip-rule="evenodd" d="M10.8096 8.29205C10.8318 8.26994 10.8469 8.24173 10.8531 8.211C10.8593 8.18026 10.8562 8.14837 10.8442 8.11939C10.8323 8.09042 10.812 8.06565 10.7859 8.04821C10.7599 8.03078 10.7292 8.02148 10.6979 8.02148C10.6665 8.02148 10.6359 8.03078 10.6098 8.04821C10.5838 8.06565 10.5635 8.09042 10.5515 8.11939C10.5396 8.14837 10.5365 8.18026 10.5427 8.211C10.5488 8.24173 10.564 8.26994 10.5862 8.29205C10.6001 8.30623 10.6169 8.31729 10.6355 8.32447C10.654 8.33166 10.6739 8.33482 10.6937 8.33373C10.7361 8.33271 10.777 8.31809 10.8104 8.29205" fill="black"/>
<path fill-rule="evenodd" clip-rule="evenodd" d="M11.2455 8.73219C11.2612 8.7191 11.2737 8.70266 11.2823 8.68405C11.2908 8.66545 11.295 8.64515 11.2946 8.62469C11.2952 8.60421 11.291 8.58387 11.2825 8.56524C11.274 8.5466 11.2613 8.53017 11.2455 8.5172C11.2306 8.50114 11.2125 8.48834 11.1924 8.47958C11.1724 8.47083 11.1507 8.46631 11.1288 8.46631C11.1069 8.46631 11.0852 8.47083 11.0651 8.47958C11.0451 8.48834 11.027 8.50114 11.0121 8.5172C10.9965 8.53033 10.9839 8.54679 10.9754 8.56539C10.9669 8.58399 10.9626 8.60425 10.9629 8.62469C10.9624 8.64518 10.9665 8.66552 10.975 8.68415C10.9836 8.70279 10.9963 8.71922 11.0121 8.73219C11.0445 8.76039 11.0859 8.77593 11.1288 8.77593C11.1717 8.77593 11.2131 8.76039 11.2455 8.73219Z" fill="black"/>
<path fill-rule="evenodd" clip-rule="evenodd" d="M11.728 9.05903C11.7288 9.03851 11.7248 9.0181 11.7162 8.99942C11.7077 8.98074 11.6948 8.96434 11.6788 8.95153C11.6497 8.92343 11.6109 8.90771 11.5705 8.90771C11.5301 8.90771 11.4912 8.92343 11.4621 8.95153C11.4345 8.98216 11.4192 9.02195 11.4192 9.0632C11.4192 9.10446 11.4345 9.14425 11.4621 9.17487C11.4928 9.20251 11.5326 9.2178 11.5738 9.2178C11.6151 9.2178 11.6549 9.20251 11.6855 9.17487C11.7103 9.14104 11.725 9.10088 11.728 9.05903Z" fill="black"/>
<path fill-rule="evenodd" clip-rule="evenodd" d="M12.1193 9.60653C12.1416 9.58442 12.1567 9.55619 12.1629 9.52545C12.1691 9.49472 12.166 9.46285 12.1541 9.43387C12.1421 9.40489 12.1218 9.3801 12.0957 9.36267C12.0697 9.34523 12.039 9.33594 12.0077 9.33594C11.9763 9.33594 11.9457 9.34523 11.9196 9.36267C11.8936 9.3801 11.8733 9.40489 11.8613 9.43387C11.8494 9.46285 11.8463 9.49472 11.8525 9.52545C11.8586 9.55619 11.8738 9.58442 11.896 9.60653C11.9267 9.63417 11.9664 9.64945 12.0077 9.64945C12.0489 9.64945 12.0887 9.63417 12.1193 9.60653Z" fill="black"/>
<path fill-rule="evenodd" clip-rule="evenodd" d="M12.5555 10.0136C12.5712 10.0005 12.5838 9.98403 12.5923 9.96543C12.6008 9.94682 12.605 9.92655 12.6047 9.9061C12.6053 9.8856 12.6012 9.86526 12.5926 9.84661C12.5841 9.82797 12.5714 9.81153 12.5555 9.7986C12.5232 9.77041 12.4817 9.75488 12.4388 9.75488C12.3959 9.75488 12.3545 9.77041 12.3222 9.7986C12.3064 9.81169 12.2939 9.82816 12.2854 9.84677C12.2768 9.86537 12.2726 9.88564 12.273 9.9061C12.2724 9.92658 12.2766 9.94692 12.2851 9.96556C12.2936 9.98419 12.3063 10.0006 12.3222 10.0136C12.3531 10.0447 12.395 10.0623 12.4388 10.0628C12.4606 10.0632 12.4823 10.0591 12.5024 10.0506C12.5225 10.0422 12.5406 10.0295 12.5555 10.0136Z" fill="black"/>
<path fill-rule="evenodd" clip-rule="evenodd" d="M12.993 10.4571C13.0199 10.4279 13.0348 10.3895 13.0346 10.3496C13.034 10.31 13.0192 10.2719 12.993 10.2421C12.9623 10.2145 12.9225 10.1992 12.8813 10.1992C12.84 10.1992 12.8002 10.2145 12.7696 10.2421C12.7545 10.2557 12.7422 10.2723 12.7338 10.2908C12.7253 10.3093 12.7208 10.3293 12.7205 10.3496C12.722 10.3903 12.7394 10.4288 12.7691 10.4567C12.7987 10.4846 12.8381 10.4997 12.8788 10.4988C12.9207 10.4998 12.9615 10.4849 12.993 10.4571Z" fill="black"/>
<path fill-rule="evenodd" clip-rule="evenodd" d="M13.4362 10.8928C13.4624 10.8625 13.4761 10.8235 13.4747 10.7835C13.4732 10.7435 13.4567 10.7055 13.4284 10.6772C13.4001 10.6489 13.3622 10.6324 13.3222 10.631C13.2822 10.6295 13.2431 10.6433 13.2129 10.6694C13.1852 10.7001 13.1699 10.7399 13.1699 10.7811C13.1699 10.8224 13.1852 10.8622 13.2129 10.8928C13.2268 10.907 13.2436 10.918 13.2621 10.9252C13.2807 10.9324 13.3005 10.9355 13.3204 10.9344C13.3626 10.933 13.4034 10.9184 13.4371 10.8928" fill="black"/>
<path fill-rule="evenodd" clip-rule="evenodd" d="M13.8428 11.3306C13.858 11.317 13.8701 11.3004 13.8786 11.2819C13.8871 11.2634 13.8916 11.2434 13.892 11.2231C13.8928 11.2025 13.8888 11.1821 13.8803 11.1635C13.8717 11.1448 13.8589 11.1284 13.8428 11.1156C13.8138 11.0875 13.7749 11.0718 13.7345 11.0718C13.6941 11.0718 13.6552 11.0875 13.6262 11.1156C13.6003 11.1455 13.5856 11.1835 13.5845 11.2231C13.584 11.2428 13.5875 11.2626 13.5946 11.281C13.6018 11.2995 13.6125 11.3163 13.6262 11.3306C13.6401 11.3448 13.6569 11.3558 13.6754 11.363C13.694 11.3702 13.7138 11.3733 13.7337 11.3722C13.7538 11.374 13.7741 11.3712 13.7931 11.364C13.812 11.3568 13.829 11.3454 13.8428 11.3306Z" fill="black"/>
<path fill-rule="evenodd" clip-rule="evenodd" d="M14.3004 11.7704C14.3165 11.7556 14.3292 11.7375 14.3377 11.7174C14.3462 11.6973 14.3503 11.6756 14.3496 11.6538C14.3504 11.6332 14.3464 11.6128 14.3379 11.5941C14.3293 11.5754 14.3165 11.559 14.3004 11.5462C14.2714 11.5181 14.2325 11.5024 14.1921 11.5024C14.1517 11.5024 14.1128 11.5181 14.0838 11.5462C14.0683 11.5592 14.0564 11.5758 14.0491 11.5946C14.0418 11.6134 14.0394 11.6338 14.0421 11.6538C14.0419 11.6838 14.0504 11.7132 14.0666 11.7385C14.0828 11.7637 14.1059 11.7838 14.1333 11.7961C14.1607 11.8085 14.191 11.8126 14.2207 11.8081C14.2504 11.8035 14.2781 11.7904 14.3004 11.7704Z" fill="black"/>
<path fill-rule="evenodd" clip-rule="evenodd" d="M14.7404 12.2032C14.7675 12.1741 14.7834 12.1362 14.785 12.0965C14.7867 12.0568 14.7741 12.0178 14.7496 11.9865L14.7404 11.9773C14.7081 11.9491 14.6666 11.9336 14.6237 11.9336C14.5808 11.9336 14.5394 11.9491 14.5071 11.9773C14.4784 12.0033 14.4606 12.0392 14.4575 12.0778C14.4544 12.1163 14.4662 12.1546 14.4904 12.1848L14.5071 12.2015C14.5221 12.2173 14.5402 12.2299 14.5603 12.2386C14.5803 12.2472 14.6019 12.2516 14.6237 12.2516C14.6456 12.2516 14.6672 12.2472 14.6872 12.2386C14.7073 12.2299 14.7254 12.2173 14.7404 12.2015" fill="black"/>
<path fill-rule="evenodd" clip-rule="evenodd" d="M10.5303 7.10214C10.9671 6.82157 11.4753 6.6724 11.9945 6.6724C12.5136 6.6724 13.0218 6.82157 13.4586 7.10214L14.3994 6.17047C13.7148 5.62842 12.8672 5.3335 11.994 5.3335C11.1208 5.3335 10.2732 5.62842 9.58862 6.17047L10.5303 7.10214Z" fill="black"/>
<path fill-rule="evenodd" clip-rule="evenodd" d="M9.58945 10.9455C9.30013 10.512 9.14572 10.0025 9.14572 9.48128C9.14572 8.96011 9.30013 8.45062 9.58945 8.01713L8.65779 7.08545C8.12346 7.77025 7.83325 8.61396 7.83325 9.48255C7.83325 10.3511 8.12346 11.1948 8.65779 11.8796L9.58945 10.9455Z" fill="black"/>
<path fill-rule="evenodd" clip-rule="evenodd" d="M13.4687 11.8794C13.0347 12.1756 12.5218 12.3345 11.9964 12.3357C11.471 12.3369 10.9573 12.1802 10.522 11.8861L9.59033 12.8177C10.275 13.3672 11.1292 13.6617 12.007 13.6511C12.8749 13.648 13.7162 13.3516 14.3945 12.8102L13.4687 11.8794Z" fill="black"/>
<path fill-rule="evenodd" clip-rule="evenodd" d="M14.3835 8.01709C14.6814 8.45536 14.8352 8.97563 14.8235 9.50543C14.8173 10.0176 14.6646 10.5172 14.3835 10.9454L15.3244 11.8771C15.8632 11.2 16.1593 10.3616 16.1652 9.49628C16.1759 8.61849 15.8813 7.76423 15.3319 7.07959L14.3835 8.01709Z" fill="black"/>
<path fill-rule="evenodd" clip-rule="evenodd" d="M15.3571 12.1621C15.487 12.1621 15.6139 12.2006 15.7219 12.2728C15.8299 12.3449 15.9141 12.4475 15.9638 12.5675C16.0135 12.6875 16.0265 12.8195 16.0011 12.9469C15.9758 13.0742 15.9133 13.1913 15.8214 13.2831C15.7296 13.3749 15.6126 13.4375 15.4852 13.4628C15.3578 13.4882 15.2258 13.4752 15.1058 13.4255C14.9858 13.3758 14.8832 13.2916 14.8111 13.1836C14.7389 13.0756 14.7004 12.9486 14.7004 12.8188C14.703 12.6454 14.773 12.4799 14.8956 12.3573C15.0182 12.2347 15.1837 12.1647 15.3571 12.1621Z" fill="black"/>
<path fill-rule="evenodd" clip-rule="evenodd" d="M8.64875 12.1621C8.78086 12.157 8.91142 12.1918 9.02342 12.2621C9.13542 12.3323 9.22365 12.4347 9.27659 12.5558C9.32953 12.677 9.34471 12.8113 9.32017 12.9412C9.29563 13.0711 9.2325 13.1906 9.13902 13.284C9.04554 13.3775 8.92606 13.4406 8.79615 13.4652C8.66625 13.4897 8.53196 13.4745 8.41082 13.4216C8.28968 13.3687 8.18731 13.2805 8.11707 13.1685C8.04684 13.0565 8.01199 12.9259 8.01709 12.7938C8.02554 12.629 8.0948 12.4732 8.21147 12.3565C8.32815 12.2398 8.48396 12.1706 8.64875 12.1621Z" fill="black"/>
<path fill-rule="evenodd" clip-rule="evenodd" d="M15.3739 5.46196C15.5468 5.46394 15.712 5.53396 15.8337 5.65687C15.9553 5.77978 16.0237 5.94568 16.0239 6.11863C16.0239 6.29102 15.9554 6.45635 15.8335 6.57825C15.7116 6.70015 15.5463 6.76863 15.3739 6.76863C15.2015 6.76863 15.0362 6.70015 14.9143 6.57825C14.7924 6.45635 14.7239 6.29102 14.7239 6.11863C14.7241 5.94545 14.7923 5.77929 14.9139 5.65598C15.0355 5.53267 15.2007 5.4621 15.3739 5.45947" fill="black"/>
<path fill-rule="evenodd" clip-rule="evenodd" d="M8.64103 5.46193C8.8128 5.4608 8.97808 5.52745 9.10102 5.64742C9.22395 5.7674 9.29462 5.931 9.29769 6.10275C9.29572 6.27568 9.2257 6.44088 9.10278 6.56254C8.97987 6.68421 8.81397 6.75256 8.64103 6.75277C8.46985 6.75277 8.30569 6.68475 8.18465 6.56371C8.06361 6.44268 7.99561 6.27852 7.99561 6.10735C7.99561 5.93617 8.06361 5.772 8.18465 5.65096C8.30569 5.52992 8.46985 5.46193 8.64103 5.46193Z" fill="black"/>
</g>
<defs>
<clipPath id="clip0_1829_1141">
<rect width="22.5" height="20" fill="white" transform="translate(0.75 2)"/>
</clipPath>
</defs>
</svg>
